<svg id="gofrugal-logo" xmlns="http://www.w3.org/2000/svg" width="186.844" height="45.594" viewBox="0 0 186.844 45.594">
  <defs>
    <style>
      .cls-1 {
        fill: #2b2f7f;
      }

      .cls-1, .cls-2, .cls-3 {
        fill-rule: evenodd;
      }

      .cls-2 {
        fill: #3a3a3a;
      }

      .cls-3 {
        fill: #ec3229;
      }
    </style>
  </defs>
  <path id="Ellipse_1_copy_9" data-name="Ellipse 1 copy 9" class="cls-1" d="M20.432,7.532a9.223,9.223,0,0,0-11.453.477,9.19,9.19,0,0,0-1.321,12.9,9.139,9.139,0,0,0,12.91.9,9.514,9.514,0,0,0,2.778-3.92H26.91a12.828,12.828,0,0,1-4.164,6.6A12.523,12.523,0,0,1,5.059,23.151a12.593,12.593,0,0,1,1.708-17.7A12.523,12.523,0,0,1,24.453,6.793c0.2,0.24.389,0.488,0.569,0.739h-4.59Z" transform="translate(-2.188 -2.406)"/>
  <path id="Experience_simplicity" data-name="Experience simplicity" class="cls-2" d="M27.175,44.111V41.038h4.741V39.883H27.175V36.96H32.5V35.777H25.824v9.516h6.862V44.111H27.175Zm13.118,1.183-2.85-3.684,2.7-3.521H38.726l-1.959,2.6-1.972-2.6H33.35l2.688,3.521-2.823,3.684H34.66l2.094-2.76,2.067,2.76h1.472Zm4.945-7.273a3.042,3.042,0,0,0-2.553,1.21V38.088H41.442v9.842h1.3V44.206a3.05,3.05,0,0,0,2.5,1.169A3.678,3.678,0,0,0,45.238,38.02ZM45.13,44.233a2.538,2.538,0,1,1,2.418-2.542A2.376,2.376,0,0,1,45.13,44.233Zm11.726-2.5a3.464,3.464,0,0,0-3.539-3.711,3.518,3.518,0,0,0-3.593,3.671A3.9,3.9,0,0,0,56.4,44.206l-0.716-.843a2.665,2.665,0,0,1-2.067.87,2.429,2.429,0,0,1-2.593-2.107h5.808C56.842,42,56.856,41.84,56.856,41.732Zm-3.539-2.61a2.238,2.238,0,0,1,2.3,2.066H51.021A2.237,2.237,0,0,1,53.317,39.122Zm6.31,0.177v-1.21H58.384v7.205h1.3V41.7a2.144,2.144,0,0,1,2.256-2.434,2.275,2.275,0,0,1,.3.014V38.02A2.727,2.727,0,0,0,59.627,39.3Zm4.58-2.6a0.851,0.851,0,0,0,.878-0.87A0.843,0.843,0,0,0,64.207,35a0.856,0.856,0,0,0-.878.857A0.845,0.845,0,0,0,64.207,36.7Zm-0.648,8.592h1.3V38.088h-1.3v7.205Zm9.969-3.562a3.464,3.464,0,0,0-3.539-3.711A3.518,3.518,0,0,0,66.4,41.691a3.9,3.9,0,0,0,6.672,2.515l-0.716-.843a2.665,2.665,0,0,1-2.067.87,2.429,2.429,0,0,1-2.593-2.107H73.5C73.514,42,73.528,41.84,73.528,41.732Zm-3.539-2.61a2.238,2.238,0,0,1,2.3,2.066H67.692A2.237,2.237,0,0,1,69.989,39.122Zm8.889-1.1a3.061,3.061,0,0,0-2.58,1.156V38.088H75.056v7.205h1.3V41.582a2.134,2.134,0,0,1,2.269-2.393A1.809,1.809,0,0,1,80.553,41.3v4h1.3V41.147A2.783,2.783,0,0,0,78.878,38.02Zm8.268,7.355a3.2,3.2,0,0,0,2.917-1.55L89.078,43.2a2.228,2.228,0,0,1-1.945,1.033,2.537,2.537,0,0,1,0-5.071A2.228,2.228,0,0,1,89.078,40.2l0.986-.639a3.187,3.187,0,0,0-2.917-1.536A3.679,3.679,0,1,0,87.147,45.375Zm10.686-3.643a3.464,3.464,0,0,0-3.539-3.711A3.518,3.518,0,0,0,90.7,41.691a3.9,3.9,0,0,0,6.672,2.515l-0.716-.843a2.665,2.665,0,0,1-2.067.87A2.429,2.429,0,0,1,92,42.126h5.808C97.819,42,97.832,41.84,97.832,41.732Zm-3.539-2.61a2.238,2.238,0,0,1,2.3,2.066H92A2.237,2.237,0,0,1,94.294,39.122Zm10.485,6.254c1.9,0,3.093-.829,3.093-2.134,0-2.8-4.539-1.414-4.539-3.113,0-.571.554-0.992,1.689-0.992a3.718,3.718,0,0,1,2.066.571l0.554-1.033a5.182,5.182,0,0,0-2.607-.653c-1.837,0-2.985.87-2.985,2.162,0,2.868,4.525,1.468,4.525,3.086,0,0.612-.5.979-1.7,0.979a4.578,4.578,0,0,1-2.512-.748l-0.54,1.033A5.141,5.141,0,0,0,104.778,45.375Zm5.093-8.673a0.85,0.85,0,1,0-.878-0.843A0.851,0.851,0,0,0,109.871,36.7Zm-0.648,8.592h1.3V38.088h-1.3v7.205Zm12.454-7.273a3.219,3.219,0,0,0-2.755,1.332,2.646,2.646,0,0,0-2.486-1.332,2.893,2.893,0,0,0-2.471,1.142V38.088h-1.243v7.205h1.3V41.582a2.086,2.086,0,0,1,2.147-2.393c1.175,0,1.851.693,1.851,2.107v4h1.3V41.582a2.086,2.086,0,0,1,2.148-2.393c1.175,0,1.851.693,1.851,2.107v4h1.3V41.147C124.608,39.026,123.42,38.02,121.677,38.02Zm8.851,0a3.04,3.04,0,0,0-2.553,1.21V38.088h-1.243v9.842h1.3V44.206a3.048,3.048,0,0,0,2.5,1.169A3.678,3.678,0,0,0,130.528,38.02Zm-0.109,6.213a2.538,2.538,0,1,1,2.418-2.542A2.376,2.376,0,0,1,130.419,44.233Zm5.257,1.06h1.3V35.206h-1.3V45.293Zm4.147-8.592a0.851,0.851,0,0,0,.878-0.87A0.843,0.843,0,0,0,139.823,35a0.856,0.856,0,0,0-.878.857A0.845,0.845,0,0,0,139.823,36.7Zm-0.648,8.592h1.3V38.088h-1.3v7.205Zm6.619,0.082a3.2,3.2,0,0,0,2.918-1.55l-0.987-.625a2.227,2.227,0,0,1-1.945,1.033,2.537,2.537,0,0,1,0-5.071,2.227,2.227,0,0,1,1.945,1.033l0.987-.639a3.189,3.189,0,0,0-2.918-1.536A3.679,3.679,0,1,0,145.794,45.375Zm4.972-8.673a0.85,0.85,0,1,0-.878-0.843A0.851,0.851,0,0,0,150.766,36.7Zm-0.648,8.592h1.3V38.088h-1.3v7.205Zm7.119-1.359a1.626,1.626,0,0,1-1.013.34,1.059,1.059,0,0,1-1.121-1.21v-3.9h2.053V38.088H155.1V36.511h-1.3v1.577H152.59v1.074h1.216v3.956a2.049,2.049,0,0,0,2.269,2.257,2.437,2.437,0,0,0,1.567-.5Zm6.633-5.846L161.4,43.852l-2.5-5.764h-1.35l3.16,7.192-0.229.5a1.407,1.407,0,0,1-1.364,1.115,1.828,1.828,0,0,1-1.284-.53l-0.553.979a2.676,2.676,0,0,0,1.837.666c1.094,0,1.918-.476,2.552-2l3.472-7.926h-1.27Z" transform="translate(-2.188 -2.406)"/>
  <path id="ofrugal_copy_5" data-name="ofrugal copy 5" class="cls-1" d="M41.881,27.866a13.667,13.667,0,0,0,6.7-1.651,12.074,12.074,0,0,0,4.693-4.546,12.66,12.66,0,0,0,1.694-6.517,12.662,12.662,0,0,0-1.694-6.517A12.078,12.078,0,0,0,48.585,4.09a14.506,14.506,0,0,0-13.444,0A12.162,12.162,0,0,0,30.43,8.653a12.585,12.585,0,0,0-1.711,6.5,12.582,12.582,0,0,0,1.711,6.5,12.158,12.158,0,0,0,4.711,4.564,13.736,13.736,0,0,0,6.739,1.651h0Zm0-3.161a9.844,9.844,0,0,1-4.922-1.243A9.013,9.013,0,0,1,33.5,20.036a9.636,9.636,0,0,1-1.253-4.883A9.637,9.637,0,0,1,33.5,10.269a9.017,9.017,0,0,1,3.458-3.427A9.85,9.85,0,0,1,41.881,5.6a9.658,9.658,0,0,1,4.887,1.243,9.094,9.094,0,0,1,3.423,3.427,9.643,9.643,0,0,1,1.253,4.883,9.642,9.642,0,0,1-1.253,4.883,9.09,9.09,0,0,1-3.423,3.427,9.652,9.652,0,0,1-4.887,1.243h0ZM74.825,5.725V2.862H57.76V27.523h3.282V17.395H73.293V14.532H61.041V5.725H74.825Zm22.535,21.8-5.727-8.286a7.979,7.979,0,0,0,4.023-2.948,8.357,8.357,0,0,0,1.411-4.9,7.852,7.852,0,0,0-2.752-6.357c-1.835-1.539-4.258-2.169-7.457-2.169H77.231V27.523h3.282V20.037H88.39l5.251,7.486H97.36ZM80.513,17.174V5.725h6.345A7.339,7.339,0,0,1,91.774,7.25a5.031,5.031,0,0,1,1.764,4.137,5.082,5.082,0,0,1-1.764,4.155,7.294,7.294,0,0,1-4.916,1.631H80.513Zm29.68,10.692q4.94,0,7.692-2.823c1.835-1.882,2.666-4.734,2.666-8.309V2.862h-3.282V16.734c0,2.7-.654,4.687-1.854,6a6.67,6.67,0,0,1-5.187,1.971c-4.634,0-6.961-2.645-6.961-7.972V2.862h-3.5V16.734c0,3.551.9,6.4,2.735,8.291s4.4,2.841,7.692,2.841h0Zm57.616-.343h3.5L160.151,2.862h-3.5L145.493,27.523h3.719l2.689-6.156h13.126ZM153.15,18.5l5.314-12.151L163.871,18.5H153.15ZM172.4,27.523h16.628V24.661H175.685V2.862H172.4V27.523Z" transform="translate(-2.188 -2.406)"/>
  <path id="Shape_1_copy_10" data-name="Shape 1 copy 10" class="cls-3" d="M27.348,13.145H13.743v3.222H27.348V13.145Z" transform="translate(-2.188 -2.406)"/>
  <path id="Ellipse_1_copy_9-2" data-name="Ellipse 1 copy 9" class="cls-1" d="M140.737,7.586a9.365,9.365,0,1,0,.126,14.4,9.478,9.478,0,0,0,3.347-8.37l3.405-.083a12.882,12.882,0,0,1-4.553,11.152A12.656,12.656,0,0,1,125.2,23.333a12.694,12.694,0,0,1,1.724-17.851,12.656,12.656,0,0,1,17.861,1.349c0.18,0.214.348,0.434,0.511,0.656Z" transform="translate(-2.188 -2.406)"/>
  <path id="Shape_1_copy_10-2" data-name="Shape 1 copy 10" class="cls-1" d="M147.642,13.52H133.448v3.074H147.44Z" transform="translate(-2.188 -2.406)"/>
</svg>
