<svg xmlns="http://www.w3.org/2000/svg" width="440" height="106" viewBox="0 0 440 106">
  <defs>
    <style>
      .cls-1 {
        fill: #2d2174;
      }

      .cls-1, .cls-2, .cls-3, .cls-4 {
        fill-rule: evenodd;
      }

      .cls-2 {
        fill: #f0c107;
      }

      .cls-3 {
        fill: #2b2f7f;
      }

      .cls-4 {
        fill: #ec3229;
      }
    </style>
  </defs>
  <path id="Easy" class="cls-1" d="M295.007,79.089v-11.4h22.876V58.817H295.007v-10.7h25.9V38.968H283.674V88.24h38.151V79.089H295.007Zm47.3-29.282a33.274,33.274,0,0,0-8.9,1.2,23.808,23.808,0,0,0-7.426,3.379l3.942,7.672a15.726,15.726,0,0,1,4.962-2.569,19.112,19.112,0,0,1,5.948-.95q4.363,0,6.546,1.936A7,7,0,0,1,349.557,66h-8.728q-8.307,0-12.283,3.027a9.868,9.868,0,0,0-3.977,8.306,10.616,10.616,0,0,0,1.69,5.913,11.274,11.274,0,0,0,4.892,4.083,17.906,17.906,0,0,0,7.566,1.478q8.448,0,11.544-5.279V88.24h10.277V66.631q0-8.447-4.716-12.635t-13.515-4.188h0Zm-0.844,31.6a7.444,7.444,0,0,1-4.54-1.232,3.946,3.946,0,0,1-1.655-3.344q0-4.434,6.758-4.434h7.531v3.871a7.127,7.127,0,0,1-3.1,3.836,9.557,9.557,0,0,1-5,1.3h0ZM380.387,88.8A27.456,27.456,0,0,0,390,87.29a13.48,13.48,0,0,0,6.159-4.259,10,10,0,0,0,2.111-6.265,9.092,9.092,0,0,0-2.182-6.476,11.427,11.427,0,0,0-5.138-3.2,65.033,65.033,0,0,0-7.6-1.654A33.6,33.6,0,0,1,377.29,64.1a2.515,2.515,0,0,1-1.9-2.464,2.9,2.9,0,0,1,1.76-2.534,11.1,11.1,0,0,1,5.279-.985,21.858,21.858,0,0,1,10.91,2.816L397,53.116a22.368,22.368,0,0,0-6.581-2.428,36.905,36.905,0,0,0-7.989-.88,25.865,25.865,0,0,0-9.4,1.549,13.357,13.357,0,0,0-6.053,4.329,10.362,10.362,0,0,0-2.077,6.37,9.207,9.207,0,0,0,2.217,6.617,11.9,11.9,0,0,0,5.244,3.238,56.226,56.226,0,0,0,7.673,1.619,28.231,28.231,0,0,1,5.842,1.2,2.442,2.442,0,0,1,1.9,2.323q0,3.45-6.969,3.449a25.648,25.648,0,0,1-7.039-1.021,23,23,0,0,1-6.124-2.64l-3.66,7.884a24.075,24.075,0,0,0,7.18,2.921,36.773,36.773,0,0,0,9.221,1.161h0Zm48.145-38.432-10.7,25.692L407.205,50.371H395.872l16.4,38.151-0.141.352A9.275,9.275,0,0,1,409.6,92.5a5.812,5.812,0,0,1-3.66,1.091,9.1,9.1,0,0,1-3.274-.633,9.441,9.441,0,0,1-2.921-1.76l-4.012,7.813a12.906,12.906,0,0,0,4.716,2.534,19.228,19.228,0,0,0,5.842.915,15.788,15.788,0,0,0,9.257-2.674q3.836-2.676,6.44-9.221l17.105-40.192H428.532Z"/>
  <path id="Manage" class="cls-2" d="M58.156,89.746L58.015,40.474H48.654L30.493,71.093,12.052,40.474H2.619V89.746h10.7V60.817l14.43,23.721h5.138l14.5-24.354,0.07,29.563h10.7ZM81.524,51.314a33.275,33.275,0,0,0-8.9,1.2,23.811,23.811,0,0,0-7.426,3.379l3.942,7.672A15.736,15.736,0,0,1,74.1,60.993a19.109,19.109,0,0,1,5.948-.95q4.363,0,6.546,1.936A7,7,0,0,1,88.774,67.5H80.046q-8.307,0-12.283,3.027a9.866,9.866,0,0,0-3.977,8.306,10.622,10.622,0,0,0,1.689,5.913,11.276,11.276,0,0,0,4.892,4.082,17.912,17.912,0,0,0,7.567,1.478q8.447,0,11.544-5.279v4.716H99.755V68.137q0-8.447-4.716-12.635T81.524,51.314h0Zm-0.845,31.6a7.445,7.445,0,0,1-4.54-1.232,3.947,3.947,0,0,1-1.654-3.343q0-4.434,6.757-4.434h7.532V77.78a7.129,7.129,0,0,1-3.1,3.836,9.558,9.558,0,0,1-5,1.3h0Zm49.2-31.6a18.886,18.886,0,0,0-7.109,1.3,14.571,14.571,0,0,0-5.42,3.7V51.877H106.863V89.746h10.981V71.023q0-5.068,2.464-7.637a8.737,8.737,0,0,1,6.616-2.569,7.227,7.227,0,0,1,5.7,2.217q1.971,2.217,1.971,6.722v19.99h10.981V68.067q0-8.3-4.329-12.529T129.88,51.314h0Zm38.08,0a33.274,33.274,0,0,0-8.9,1.2,23.808,23.808,0,0,0-7.426,3.379l3.942,7.672a15.726,15.726,0,0,1,4.962-2.569,19.112,19.112,0,0,1,5.948-.95q4.363,0,6.546,1.936A7,7,0,0,1,175.21,67.5h-8.728q-8.307,0-12.283,3.027a9.868,9.868,0,0,0-3.977,8.306,10.616,10.616,0,0,0,1.69,5.913,11.274,11.274,0,0,0,4.892,4.082,17.906,17.906,0,0,0,7.566,1.478q8.447,0,11.544-5.279v4.716h10.277V68.137q0-8.447-4.716-12.635T167.96,51.314h0Zm-0.844,31.6a7.448,7.448,0,0,1-4.541-1.232,3.947,3.947,0,0,1-1.654-3.343q0-4.434,6.758-4.434h7.531V77.78a7.127,7.127,0,0,1-3.1,3.836,9.557,9.557,0,0,1-5,1.3h0ZM222.37,51.877v4.857q-4.294-5.419-12.53-5.42A20.1,20.1,0,0,0,200.3,53.6a17.437,17.437,0,0,0-6.863,6.441,18.014,18.014,0,0,0-2.534,9.573,18.008,18.008,0,0,0,2.534,9.573,17.422,17.422,0,0,0,6.863,6.441,20.087,20.087,0,0,0,9.537,2.288q7.673,0,11.967-4.716v1.619q0,5.21-2.71,7.778t-8.412,2.569A24.079,24.079,0,0,1,203.365,94a17.964,17.964,0,0,1-6.054-3.132l-4.364,7.883a22.783,22.783,0,0,0,8.165,3.872,39.677,39.677,0,0,0,10.418,1.337q10.416,0,15.837-5.068t5.42-15.486V51.877H222.37ZM212.022,78.907a10.233,10.233,0,0,1-7.179-2.569,9.431,9.431,0,0,1,0-13.444,10.238,10.238,0,0,1,7.179-2.569,10.115,10.115,0,0,1,7.145,2.569,9.517,9.517,0,0,1,0,13.444,10.11,10.11,0,0,1-7.145,2.569h0Zm65.251-7.954A20.465,20.465,0,0,0,274.7,60.57a17.476,17.476,0,0,0-7.074-6.863,22.445,22.445,0,0,0-20.377.106A18.49,18.49,0,0,0,240,60.782a19.353,19.353,0,0,0-2.64,10.03,19.094,19.094,0,0,0,2.675,10.066,18.31,18.31,0,0,0,7.6,6.933,24.711,24.711,0,0,0,11.332,2.5q10.276,0,15.627-6.124l-5.842-6.335a12.719,12.719,0,0,1-4.259,2.78,14.522,14.522,0,0,1-5.244.88,12.119,12.119,0,0,1-7.18-2.041,8.918,8.918,0,0,1-3.66-5.561h28.648q0.212-2.745.212-2.956h0ZM257.634,59.62a9.26,9.26,0,0,1,6.194,2.147,9.081,9.081,0,0,1,3.1,5.737H248.272a8.991,8.991,0,0,1,3.1-5.772,9.458,9.458,0,0,1,6.265-2.112h0Z"/>
  <path id="Ellipse_1_copy_10" data-name="Ellipse 1 copy 10" class="cls-3" d="M23.894,6.646A12.176,12.176,0,0,0,8.8,7.056a11.407,11.407,0,0,0-1.712,16.3,12.056,12.056,0,0,0,16.729,1.137,12,12,0,0,0,3.624-5.039h4.6a16.132,16.132,0,0,1-5.4,8.417A16.52,16.52,0,0,1,3.72,26.182,15.631,15.631,0,0,1,5.933,3.832,16.52,16.52,0,0,1,28.851,5.521c0.258,0.3.487,0.614,0.718,0.926Z"/>
  <path id="Shape_1_copy_11" data-name="Shape 1 copy 11" class="cls-4" d="M32.656,13.262H14.709v4.424H32.656V13.262Z"/>
  <path id="Shape_1_copy_11-2" data-name="Shape 1 copy 11" class="cls-3" d="M49.719,32a16.521,16.521,0,0,0,7.973-1.924,14.231,14.231,0,0,0,5.581-5.3,14.523,14.523,0,0,0,2.014-7.594A14.525,14.525,0,0,0,63.273,9.59a14.236,14.236,0,0,0-5.581-5.3,17.567,17.567,0,0,0-15.989,0,14.359,14.359,0,0,0-7.638,12.891A14.359,14.359,0,0,0,41.7,30.075,16.606,16.606,0,0,0,49.719,32h0Zm0-3.683a11.9,11.9,0,0,1-5.854-1.448,10.616,10.616,0,0,1-4.113-3.994,11.052,11.052,0,0,1-1.49-5.69,11.053,11.053,0,0,1,1.49-5.69A10.62,10.62,0,0,1,43.865,7.5a11.9,11.9,0,0,1,5.854-1.448A11.672,11.672,0,0,1,55.531,7.5,10.708,10.708,0,0,1,59.6,11.494a11.06,11.06,0,0,1,1.49,5.69,11.059,11.059,0,0,1-1.49,5.69,10.7,10.7,0,0,1-4.071,3.994,11.665,11.665,0,0,1-5.812,1.448h0ZM89.082,6.3V2.7H68.351V31.668h4.2V19.957h14.73V16.4H72.547V6.3H89.082Zm26.773,25.368-6.966-9.725a9.48,9.48,0,0,0,4.784-3.435,9.6,9.6,0,0,0,1.678-5.711,9.069,9.069,0,0,0-3.273-7.408Q108.805,2.7,103.1,2.7H91.641V31.668h4.2V22.853h7.26q0.671,0,1.846-.083l6.337,8.9h4.574ZM102.972,19.336H95.838V6.3h7.134a9.57,9.57,0,0,1,6.085,1.676,5.812,5.812,0,0,1,2.1,4.821,5.87,5.87,0,0,1-2.1,4.842,9.483,9.483,0,0,1-6.085,1.7h0ZM130.962,32q5.874,0,9.148-3.29t3.273-9.539V2.7h-4.07V19q0,4.718-2.14,7.015a8.021,8.021,0,0,1-6.169,2.3q-8.268,0-8.267-9.311V2.7h-4.2V19.17q0,6.208,3.273,9.518T130.962,32h0Zm70.527-.331H205.9L192.55,2.7H188.4l-13.3,28.969h4.322l3.231-7.242h15.611ZM184.115,21.115l6.337-14.195,6.337,14.195H184.115ZM206.9,31.668H227v-3.6H211.1V2.7h-4.2V31.668ZM177.769,17.762v0.084h-0.018a16.06,16.06,0,0,1-5.742,10.025,16.52,16.52,0,0,1-22.918-1.689A15.631,15.631,0,0,1,151.3,3.832a16.52,16.52,0,0,1,22.918,1.689c0.229,0.266.43,0.546,0.637,0.822l-5.841.123a12.189,12.189,0,0,0-14.847.591,11.407,11.407,0,0,0-1.712,16.3,12.056,12.056,0,0,0,16.729,1.137,11.863,11.863,0,0,0,4.087-6.645H159.446l0.072-3.852,18.251-.136V13.91l0.081,0A15.536,15.536,0,0,1,177.769,17.762Z"/>
</svg>
