<svg xmlns="http://www.w3.org/2000/svg" width="460" height="140" viewBox="0 0 460 140">
  <defs>
    <style>
      .cls-1 {
        fill: #ef1212;
      }

      .cls-1, .cls-2, .cls-3, .cls-4 {
        fill-rule: evenodd;
      }

      .cls-2 {
        fill: #2d2174;
      }

      .cls-3 {
        fill: #2b2f7f;
      }

      .cls-4 {
        fill: #ec3229;
      }
    </style>
  </defs>
  <path id="Retail" class="cls-1" d="M57.912,120.754L43.376,99.922A21.112,21.112,0,0,0,56.708,79.461a22.453,22.453,0,0,0-3.426-12.5,22.226,22.226,0,0,0-9.768-8.147,36.02,36.02,0,0,0-14.952-2.87H0.509v64.81h15V102.7H29.3l12.5,18.054h16.11ZM41.524,79.461a10.3,10.3,0,0,1-3.518,8.333q-3.52,2.964-10.277,2.963H15.508V68.165H27.729q6.757,0,10.277,2.916t3.518,8.379h0Zm71.1,16.573a26.929,26.929,0,0,0-3.379-13.656,23,23,0,0,0-9.305-9.027,29.524,29.524,0,0,0-26.8.139A24.327,24.327,0,0,0,63.6,82.655a25.459,25.459,0,0,0-3.472,13.193,25.117,25.117,0,0,0,3.518,13.24,24.085,24.085,0,0,0,10,9.12,32.512,32.512,0,0,0,14.906,3.286q13.517,0,20.554-8.054l-7.685-8.333a16.715,16.715,0,0,1-5.6,3.657,19.093,19.093,0,0,1-6.9,1.157,15.937,15.937,0,0,1-9.444-2.685,11.725,11.725,0,0,1-4.814-7.314H112.35q0.279-3.611.278-3.888h0ZM86.8,81.127a12.18,12.18,0,0,1,8.147,2.824A11.949,11.949,0,0,1,99.018,91.5H74.483A11.824,11.824,0,0,1,78.557,83.9a12.437,12.437,0,0,1,8.24-2.778h0Zm60,27.035a9.278,9.278,0,0,1-5.833,1.852,6,6,0,0,1-4.583-1.713,6.8,6.8,0,0,1-1.62-4.861V83.164h12.406V72.054H134.756V59.925H120.312V72.054h-7.684v11.11h7.684v20.462q0,8.8,4.861,13.332t13.749,4.536a26.531,26.531,0,0,0,6.527-.786,14.831,14.831,0,0,0,5.231-2.361ZM175.215,70.2A43.77,43.77,0,0,0,163.5,71.776a31.328,31.328,0,0,0-9.768,4.444l5.185,10.092a20.7,20.7,0,0,1,6.527-3.379,25.137,25.137,0,0,1,7.824-1.25q5.739,0,8.61,2.546a9.207,9.207,0,0,1,2.87,7.268h-11.48q-10.926,0-16.156,3.981a12.977,12.977,0,0,0-5.231,10.925,13.967,13.967,0,0,0,2.222,7.777,14.824,14.824,0,0,0,6.434,5.37,23.564,23.564,0,0,0,9.953,1.944q11.111,0,15.184-6.943v6.2H199.2V92.33q0-11.11-6.2-16.619T175.215,70.2h0ZM174.1,111.773a9.8,9.8,0,0,1-5.972-1.62,5.191,5.191,0,0,1-2.175-4.4q0-5.833,8.888-5.833h9.906v5.092a9.377,9.377,0,0,1-4.073,5.046,12.574,12.574,0,0,1-6.574,1.713h0Zm34.441,8.981h14.443V70.943H208.545v49.811ZM215.766,64a9.054,9.054,0,0,0,6.481-2.361,7.86,7.86,0,0,0,2.5-5.972,7.123,7.123,0,0,0-2.5-5.555,9.39,9.39,0,0,0-6.481-2.222,9.166,9.166,0,0,0-6.481,2.315,7.842,7.842,0,0,0,0,11.481A9.159,9.159,0,0,0,215.766,64h0Zm16.943,56.755h14.443v-68.7H232.709v68.7Z"/>
  <path id="Easy" class="cls-2" d="M270.415,108.718v-15h30.09V82.053h-30.09V67.98h34.071V55.944H255.509v64.81H305.69V108.718H270.415ZM332.632,70.2a43.77,43.77,0,0,0-11.712,1.574,31.317,31.317,0,0,0-9.768,4.444l5.185,10.092a20.691,20.691,0,0,1,6.527-3.379,25.131,25.131,0,0,1,7.823-1.25q5.74,0,8.611,2.546a9.21,9.21,0,0,1,2.87,7.268H330.687q-10.926,0-16.156,3.981A12.977,12.977,0,0,0,309.3,106.4a13.975,13.975,0,0,0,2.222,7.777,14.827,14.827,0,0,0,6.435,5.37,23.564,23.564,0,0,0,9.953,1.944q11.11,0,15.184-6.943v6.2h13.517V92.33q0-11.11-6.2-16.619T332.632,70.2h0Zm-1.111,41.571a9.8,9.8,0,0,1-5.972-1.62,5.192,5.192,0,0,1-2.176-4.4q0-5.833,8.888-5.833h9.907v5.092a9.375,9.375,0,0,1-4.074,5.046,12.57,12.57,0,0,1-6.573,1.713h0Zm51.2,9.721a36.126,36.126,0,0,0,12.638-1.99,17.727,17.727,0,0,0,8.1-5.6,13.148,13.148,0,0,0,2.778-8.24q0-5.462-2.87-8.517a15.036,15.036,0,0,0-6.759-4.213,85.572,85.572,0,0,0-10-2.176A44.205,44.205,0,0,1,378.645,89a3.308,3.308,0,0,1-2.5-3.24,3.812,3.812,0,0,1,2.314-3.333q2.313-1.3,6.944-1.3a28.756,28.756,0,0,1,14.351,3.7l4.814-10.277a29.437,29.437,0,0,0-8.657-3.194A48.539,48.539,0,0,0,385.4,70.2a34.015,34.015,0,0,0-12.36,2.037,17.576,17.576,0,0,0-7.962,5.694,13.628,13.628,0,0,0-2.732,8.379q0,5.648,2.917,8.7a15.646,15.646,0,0,0,6.9,4.259,74.007,74.007,0,0,0,10.092,2.13,37.136,37.136,0,0,1,7.685,1.573q2.5,0.927,2.5,3.056,0,4.538-9.166,4.536a33.759,33.759,0,0,1-9.259-1.342,30.224,30.224,0,0,1-8.055-3.472l-4.814,10.37a31.7,31.7,0,0,0,9.443,3.842,48.4,48.4,0,0,0,12.129,1.527h0Zm63.328-50.551-14.073,33.794-13.98-33.794H403.087l21.573,50.181-0.185.463a12.193,12.193,0,0,1-3.333,4.768,7.646,7.646,0,0,1-4.815,1.435,11.956,11.956,0,0,1-4.305-.833,12.415,12.415,0,0,1-3.842-2.315L402.9,134.919a16.979,16.979,0,0,0,6.2,3.333,25.294,25.294,0,0,0,7.684,1.2,20.758,20.758,0,0,0,12.175-3.518q5.045-3.52,8.472-12.129l22.5-52.866H446.047Z"/>
  <path id="Ellipse_1_copy_10" data-name="Ellipse 1 copy 10" class="cls-3" d="M23.894,6.646A12.176,12.176,0,0,0,8.8,7.056a11.407,11.407,0,0,0-1.712,16.3,12.056,12.056,0,0,0,16.729,1.137,12,12,0,0,0,3.624-5.039h4.6a16.132,16.132,0,0,1-5.4,8.417A16.52,16.52,0,0,1,3.72,26.182,15.631,15.631,0,0,1,5.933,3.832,16.52,16.52,0,0,1,28.851,5.521c0.258,0.3.487,0.614,0.718,0.926Z"/>
  <path id="Shape_1_copy_11" data-name="Shape 1 copy 11" class="cls-4" d="M32.656,13.262H14.709v4.424H32.656V13.262Z"/>
  <path id="Shape_1_copy_11-2" data-name="Shape 1 copy 11" class="cls-3" d="M49.719,32a16.521,16.521,0,0,0,7.973-1.924,14.232,14.232,0,0,0,5.581-5.3,14.524,14.524,0,0,0,2.014-7.594A14.526,14.526,0,0,0,63.273,9.59a14.237,14.237,0,0,0-5.581-5.3,17.567,17.567,0,0,0-15.989,0,14.359,14.359,0,0,0-7.638,12.891A14.359,14.359,0,0,0,41.7,30.075,16.606,16.606,0,0,0,49.719,32h0Zm0-3.683a11.9,11.9,0,0,1-5.854-1.448,10.616,10.616,0,0,1-4.113-3.994,11.052,11.052,0,0,1-1.49-5.69,11.053,11.053,0,0,1,1.49-5.69A10.621,10.621,0,0,1,43.865,7.5a11.905,11.905,0,0,1,5.854-1.448A11.672,11.672,0,0,1,55.531,7.5,10.708,10.708,0,0,1,59.6,11.494a11.06,11.06,0,0,1,1.49,5.69,11.059,11.059,0,0,1-1.49,5.69,10.7,10.7,0,0,1-4.071,3.994,11.665,11.665,0,0,1-5.812,1.448h0ZM89.082,6.3V2.7H68.351V31.668h4.2V19.957h14.73V16.4H72.547V6.3H89.082Zm26.773,25.368-6.966-9.725a9.48,9.48,0,0,0,4.784-3.435,9.6,9.6,0,0,0,1.678-5.711,9.069,9.069,0,0,0-3.273-7.408Q108.805,2.7,103.1,2.7H91.641V31.668h4.2V22.853h7.26q0.671,0,1.846-.083l6.337,8.9h4.574ZM102.972,19.336H95.838V6.3h7.134a9.57,9.57,0,0,1,6.085,1.676,5.812,5.812,0,0,1,2.1,4.821,5.87,5.87,0,0,1-2.1,4.842,9.483,9.483,0,0,1-6.085,1.7h0ZM130.962,32q5.874,0,9.148-3.29t3.273-9.539V2.7h-4.07V19q0,4.718-2.14,7.015a8.021,8.021,0,0,1-6.169,2.3q-8.268,0-8.267-9.311V2.7h-4.2V19.17q0,6.208,3.274,9.518T130.962,32h0Zm70.527-.331H205.9L192.55,2.7H188.4l-13.3,28.969h4.322l3.231-7.242h15.611ZM184.115,21.115l6.337-14.195,6.337,14.195H184.115ZM206.9,31.668H227v-3.6H211.1V2.7h-4.2V31.668ZM177.769,17.762v0.084h-0.018a16.06,16.06,0,0,1-5.742,10.025,16.52,16.52,0,0,1-22.918-1.689A15.631,15.631,0,0,1,151.3,3.832a16.52,16.52,0,0,1,22.918,1.689c0.229,0.266.43,0.546,0.637,0.822l-5.841.123a12.189,12.189,0,0,0-14.847.591,11.407,11.407,0,0,0-1.712,16.3,12.056,12.056,0,0,0,16.729,1.137,11.863,11.863,0,0,0,4.087-6.645H159.446l0.072-3.852,18.251-.136V13.91l0.081,0A15.537,15.537,0,0,1,177.769,17.762Z"/>
</svg>
