<svg xmlns="http://www.w3.org/2000/svg" width="442" height="122" viewBox="0 0 442 122">
  <defs>
    <style>
      .cls-1 {
        fill: #3ec451;
      }

      .cls-1, .cls-2, .cls-3, .cls-4 {
        fill-rule: evenodd;
      }

      .cls-2 {
        fill: #2d2174;
      }

      .cls-3 {
        fill: #2b2f7f;
      }

      .cls-4 {
        fill: #ec3229;
      }
    </style>
  </defs>
  <path id="Serve" class="cls-1" d="M24.861,105.2a35.648,35.648,0,0,0,14.181-2.523,19.585,19.585,0,0,0,8.744-6.83A16.633,16.633,0,0,0,50.7,86.317q0-6.089-3.176-9.657a18.888,18.888,0,0,0-7.613-5.22,99.543,99.543,0,0,0-11.4-3.306,51.142,51.142,0,0,1-9.962-3Q15.29,63.61,15.29,60.477a5.842,5.842,0,0,1,2.828-5.046q2.826-1.913,8.744-1.914A33.972,33.972,0,0,1,43.74,58.3l4.35-10.7a33.69,33.69,0,0,0-9.744-4,46.863,46.863,0,0,0-11.4-1.392,35.331,35.331,0,0,0-14.138,2.523,19.314,19.314,0,0,0-8.657,6.83,16.953,16.953,0,0,0-2.871,9.614q0,6.091,3.176,9.744a18.506,18.506,0,0,0,7.613,5.307,98.884,98.884,0,0,0,11.4,3.306q4.523,1.044,7.178,1.914A12.874,12.874,0,0,1,35,83.75a4.534,4.534,0,0,1,1.7,3.611A5.387,5.387,0,0,1,33.822,92.1q-2.871,1.784-8.874,1.784a34.935,34.935,0,0,1-10.788-1.74A32.447,32.447,0,0,1,4.85,87.535L0.065,98.149a32.742,32.742,0,0,0,10.832,5.09A49.821,49.821,0,0,0,24.861,105.2h0ZM101.77,80.922a25.3,25.3,0,0,0-3.175-12.833,21.608,21.608,0,0,0-8.744-8.483,27.744,27.744,0,0,0-25.187.13A22.86,22.86,0,0,0,55.7,68.35a23.924,23.924,0,0,0-3.263,12.4A23.6,23.6,0,0,0,55.746,93.19a22.632,22.632,0,0,0,9.4,8.57,30.551,30.551,0,0,0,14.008,3.088q12.7,0,19.315-7.569l-7.221-7.83a15.7,15.7,0,0,1-5.264,3.437A17.95,17.95,0,0,1,79.5,93.973a14.977,14.977,0,0,1-8.874-2.523A11.019,11.019,0,0,1,66.1,84.577h35.41q0.261-3.393.261-3.654h0ZM77.5,66.915a11.446,11.446,0,0,1,7.656,2.654,11.229,11.229,0,0,1,3.828,7.091H65.925a11.111,11.111,0,0,1,3.828-7.134,11.687,11.687,0,0,1,7.743-2.61h0ZM120.3,63.522V57.345H107.338v46.808h13.573v-22.1q0-6.525,3.306-9.788T133.352,69q0.783,0,3.045.174V56.648a24.385,24.385,0,0,0-9.527,1.74,15.092,15.092,0,0,0-6.568,5.133h0Zm55.769-6.177-13.4,31.843L149.709,57.345H135.7l19.663,46.808h14.007l19.75-46.808h-13.05Zm59.683,23.578a25.308,25.308,0,0,0-3.175-12.833,21.61,21.61,0,0,0-8.744-8.483,27.745,27.745,0,0,0-25.188.13,22.862,22.862,0,0,0-8.961,8.613,23.925,23.925,0,0,0-3.263,12.4A23.6,23.6,0,0,0,189.73,93.19a22.625,22.625,0,0,0,9.4,8.57,30.55,30.55,0,0,0,14.007,3.088q12.7,0,19.315-7.569l-7.221-7.83a15.712,15.712,0,0,1-5.264,3.437,17.946,17.946,0,0,1-6.482,1.088,14.978,14.978,0,0,1-8.874-2.523,11.021,11.021,0,0,1-4.524-6.873h35.41q0.261-3.393.261-3.654h0ZM211.48,66.915a11.446,11.446,0,0,1,7.657,2.654,11.229,11.229,0,0,1,3.828,7.091H199.909a11.114,11.114,0,0,1,3.828-7.134,11.686,11.686,0,0,1,7.743-2.61h0Z"/>
  <path id="Easy" class="cls-2" d="M259.857,92.842V78.747h28.276V67.785H259.857V54.56h32.018V43.25H245.85v60.9h47.156V92.842H259.857Zm58.466-36.193a41.131,41.131,0,0,0-11.006,1.479,29.438,29.438,0,0,0-9.179,4.176l4.872,9.483a19.461,19.461,0,0,1,6.134-3.176,23.618,23.618,0,0,1,7.352-1.175q5.394,0,8.091,2.393a8.655,8.655,0,0,1,2.7,6.83H316.5q-10.267,0-15.182,3.741A12.194,12.194,0,0,0,296.4,90.667a13.13,13.13,0,0,0,2.088,7.308,13.935,13.935,0,0,0,6.047,5.046,22.143,22.143,0,0,0,9.353,1.827q10.44,0,14.268-6.525v5.829h12.7V77.442q0-10.44-5.829-15.617t-16.705-5.177h0Zm-1.044,39.065a9.2,9.2,0,0,1-5.612-1.523,4.88,4.88,0,0,1-2.044-4.133q0-5.481,8.352-5.481h9.309v4.785a8.81,8.81,0,0,1-3.828,4.742,11.814,11.814,0,0,1-6.177,1.61h0Zm48.112,9.135a33.95,33.95,0,0,0,11.876-1.87,16.665,16.665,0,0,0,7.612-5.264,12.354,12.354,0,0,0,2.611-7.743q0-5.133-2.7-8a14.123,14.123,0,0,0-6.351-3.959,80.354,80.354,0,0,0-9.4-2.045,41.518,41.518,0,0,1-7.482-1.653,3.108,3.108,0,0,1-2.349-3.045,3.581,3.581,0,0,1,2.175-3.132,13.719,13.719,0,0,1,6.525-1.218A27.019,27.019,0,0,1,381.4,70.4l4.525-9.657a27.677,27.677,0,0,0-8.135-3,45.62,45.62,0,0,0-9.875-1.088A31.97,31.97,0,0,0,356.3,58.563a16.514,16.514,0,0,0-7.482,5.351,12.808,12.808,0,0,0-2.567,7.874q0,5.308,2.741,8.178a14.7,14.7,0,0,0,6.481,4,69.481,69.481,0,0,0,9.484,2,34.894,34.894,0,0,1,7.221,1.479q2.349,0.871,2.349,2.871,0,4.264-8.613,4.263a31.711,31.711,0,0,1-8.7-1.262,28.412,28.412,0,0,1-7.569-3.263L345.119,99.8a29.753,29.753,0,0,0,8.874,3.611,45.47,45.47,0,0,0,11.4,1.435h0Zm59.51-47.5L411.676,89.1,398.539,57.345H384.531L404.8,104.5l-0.174.435a11.478,11.478,0,0,1-3.132,4.481,7.18,7.18,0,0,1-4.524,1.349,11.249,11.249,0,0,1-4.046-.784,11.644,11.644,0,0,1-3.611-2.175l-4.959,9.658a15.965,15.965,0,0,0,5.829,3.132,23.8,23.8,0,0,0,7.222,1.131,19.512,19.512,0,0,0,11.441-3.306q4.74-3.308,7.96-11.4l21.142-49.678H424.9Z"/>
  <path id="Ellipse_1_copy_10" data-name="Ellipse 1 copy 10" class="cls-3" d="M29.894,6.646A12.176,12.176,0,0,0,14.8,7.056a11.407,11.407,0,0,0-1.712,16.3,12.2,12.2,0,0,0,20.353-3.9h4.6a16.132,16.132,0,0,1-5.4,8.417A16.52,16.52,0,0,1,9.72,26.182a15.631,15.631,0,0,1,2.213-22.35A16.52,16.52,0,0,1,34.851,5.521c0.258,0.3.487,0.614,0.718,0.926Z"/>
  <path id="Shape_1_copy_11" data-name="Shape 1 copy 11" class="cls-4" d="M38.656,13.262H20.709v4.424H38.656V13.262Z"/>
  <path id="Shape_1_copy_11-2" data-name="Shape 1 copy 11" class="cls-3" d="M55.719,32a16.521,16.521,0,0,0,7.973-1.924,14.231,14.231,0,0,0,5.581-5.3,14.523,14.523,0,0,0,2.014-7.594A14.525,14.525,0,0,0,69.273,9.59a14.236,14.236,0,0,0-5.581-5.3,17.567,17.567,0,0,0-15.989,0,14.359,14.359,0,0,0-7.638,12.891A14.359,14.359,0,0,0,47.7,30.075,16.606,16.606,0,0,0,55.719,32h0Zm0-3.683a11.9,11.9,0,0,1-5.854-1.448,10.616,10.616,0,0,1-4.113-3.994,11.052,11.052,0,0,1-1.49-5.69,11.053,11.053,0,0,1,1.49-5.69A10.62,10.62,0,0,1,49.865,7.5a11.9,11.9,0,0,1,5.854-1.448A11.672,11.672,0,0,1,61.531,7.5,10.708,10.708,0,0,1,65.6,11.494a11.06,11.06,0,0,1,1.49,5.69,11.059,11.059,0,0,1-1.49,5.69,10.7,10.7,0,0,1-4.071,3.994,11.665,11.665,0,0,1-5.812,1.448h0ZM95.082,6.3V2.7H74.351V31.668h4.2V19.957h14.73V16.4H78.547V6.3H95.082Zm26.773,25.368-6.966-9.725a9.48,9.48,0,0,0,4.784-3.435,9.6,9.6,0,0,0,1.678-5.711,9.069,9.069,0,0,0-3.273-7.408Q114.805,2.7,109.1,2.7H97.641V31.668h4.2V22.853h7.26q0.671,0,1.846-.083l6.337,8.9h4.574ZM108.972,19.336h-7.134V6.3h7.134a9.57,9.57,0,0,1,6.085,1.676,5.812,5.812,0,0,1,2.1,4.821,5.87,5.87,0,0,1-2.1,4.842,9.483,9.483,0,0,1-6.085,1.7h0ZM136.962,32q5.874,0,9.148-3.29t3.273-9.539V2.7h-4.07V19q0,4.718-2.14,7.015a8.021,8.021,0,0,1-6.169,2.3q-8.268,0-8.267-9.311V2.7h-4.2V19.17q0,6.208,3.274,9.518T136.962,32h0Zm70.527-.331H211.9L198.55,2.7H194.4l-13.3,28.969h4.322l3.231-7.242h15.611ZM190.115,21.115l6.337-14.195,6.337,14.195H190.115ZM212.9,31.668H233v-3.6H217.1V2.7h-4.2V31.668ZM183.769,17.762v0.084h-0.018a16.06,16.06,0,0,1-5.742,10.025,16.52,16.52,0,0,1-22.918-1.689A15.631,15.631,0,0,1,157.3,3.832a16.52,16.52,0,0,1,22.918,1.689c0.229,0.266.43,0.546,0.637,0.822l-5.841.123a12.189,12.189,0,0,0-14.847.591,11.407,11.407,0,0,0-1.712,16.3,12.056,12.056,0,0,0,16.729,1.137,11.863,11.863,0,0,0,4.087-6.645H165.446l0.072-3.852,18.251-.136V13.91l0.081,0A15.536,15.536,0,0,1,183.769,17.762Z"/>
</svg>
