<svg xmlns="http://www.w3.org/2000/svg" width="253.531" height="108.031" viewBox="0 0 253.531 108.031">
  <defs>
    <style>
      .cls-1 {
        fill: #fff;
      }

      .cls-1, .cls-2, .cls-3 {
        fill-rule: evenodd;
      }

      .cls-2, .cls-3 {
        fill: none;
        stroke: #fff;
        stroke-width: 2px;
      }

      .cls-3 {
        stroke-linecap: round;
        stroke-linejoin: round;
      }
    </style>
  </defs>
  <path id="Do_you_own_multiple_stores_" data-name="Do you own     multiple stores?" class="cls-1" d="M649.432,607.752l-0.7.056h-0.28l-0.364-.028-0.476-.084-0.42-.14-0.364-.112-0.252-.112-0.308-.2-0.336-.28-0.252-.28-0.14-.224-0.168-.308-0.112-.336-0.112-.5V604.98l0.112-.5,0.084-.252,0.084-.224,0.084-.252,0.112-.224,0.14-.2,0.336-.392,0.392-.336,0.224-.14,0.224-.112,0.252-.084,0.5-.112,0.252-.028h1.008l0.28,0.028,0.5,0.112,0.336,0.112,0.336,0.14,0.252,0.112,0.224,0.14,0.252,0.112,0.308,0.084,0.308-.084,0.168-.252,0.168-.5,0.168-.448,0.084-.252,0.056-.224,0.084-.28,0.168-.672,0.056-.252,0.168-.5,0.084-.364,0.112-.476,0.112-.448,0.112-.392,0.056-.168,0.084-.28,0.056-.252,0.084-.28,0.028-.168,0.112-.336,0.084-.364,0.084-.2,0.084-.308,0.112-.28,0.112-.336,0.084-.336,0.112-.252,0.112-.224,0.112-.2,0.14-.224,0.224-.448,0.14-.2,0.112-.224,0.14-.2,0.168-.252,0.2-.224,0.2-.2,0.252-.224,0.224-.168,0.224-.112,0.224-.084,0.252-.056h0.252l0.28,0.056,0.252,0.112,0.224,0.14,0.168,0.2,0.056,0.252-0.112.224L658,592.38l-0.224.14-0.2.168-0.168.168-0.14.224-0.14.2-0.112.224-0.084.252-0.112.168-0.084.252-0.14.252-0.336.672-0.084.252-0.056.224-0.084.252-0.112.224-0.084.252-0.084.224-0.056.252-0.028.252-0.084.252-0.056.252-0.084.224-0.084.252-0.084.364-0.084.336-0.056.252-0.084.252-0.056.252-0.084.252-0.028.224-0.084.252-0.084.28-0.084.308-0.084.364-0.084.252-0.084.224-0.084.252-0.056.252-0.084.224-0.084.252-0.056.252-0.084.224-0.084.252-0.084.224-0.112.224-0.112.2-0.056.224,0.056,0.224,0.14,0.14,0.392,0.308,0.224,0.14,0.308,0.14,0.5,0.252,0.28,0.112,0.392,0.14,0.42,0.14,0.336,0.084,0.28,0.084,0.252,0.028h1.232l0.252-.028,0.252-.056,0.252-.028,0.224-.084,0.252-.112,0.42-.28,0.224-.14,0.2-.14,0.2-.168,0.168-.168,0.168-.2,0.2-.2,0.336-.392,0.14-.2,0.112-.224,0.14-.252,0.084-.168,0.14-.252,0.112-.224,0.112-.252,0.14-.336,0.112-.336,0.112-.28,0.084-.336,0.084-.364,0.056-.308,0.028-.168,0.056-.28,0.084-.532,0.028-.308,0.112-.616,0.028-.308v-0.532l0.028-.252v-0.252l-0.028-.252V596.72l-0.028-.28-0.028-.168-0.028-.308-0.056-.5-0.056-.364-0.056-.336-0.056-.252-0.084-.252-0.112-.224-0.084-.224-0.112-.252-0.14-.336-0.14-.308-0.112-.252-0.14-.2-0.168-.224-0.448-.56-0.336-.392-0.392-.336-0.2-.14-0.224-.14-0.224-.112-0.476-.224-0.308-.14-0.336-.14-0.28-.084-0.336-.056-0.308-.056-0.84-.14H656.88l-0.5.028h-0.252l-0.756.084-0.5.112L654.64,590l-0.252.056-0.252.084-0.224.112-0.224.14-0.224.112-0.2.14-0.448.28-0.392.336-0.532.532-0.14.224-0.14.2-0.28.448-0.112.2-0.112.252-0.084.252-0.084.336-0.084.364-0.028.252v0.532l0.028,0.252,0.056,0.224,0.056,0.252,0.084,0.252,0.112,0.224,0.084,0.252,0.224,0.448,0.084,0.224v0.252l-0.14.224-0.2.2-0.224.168-0.252.084-0.28.028-0.252-.056-0.224-.14-0.5-.588-0.14-.2-0.28-.448-0.224-.448-0.084-.252-0.056-.252-0.056-.224-0.056-.252-0.028-.28v-0.756l0.056-.5,0.056-.252,0.168-.5,0.084-.224,0.112-.252,0.224-.448,0.14-.224,0.112-.224,0.14-.2,0.168-.252,0.112-.112,0.168-.224,0.2-.2,0.392-.336,0.168-.168,0.2-.14,0.252-.168,0.616-.392,0.308-.168,0.252-.168,0.224-.112,0.252-.084,0.364-.14,0.42-.112,0.364-.084,0.28-.084,0.672-.168,0.588-.056,0.364-.028,0.308-.028,0.336,0.028H657.3l0.308,0.028,0.168,0.028,0.924,0.14,0.364,0.084,0.2,0.056,0.532,0.112,0.5,0.168,0.252,0.14,0.168,0.084,0.252,0.14,0.252,0.112,0.2,0.112,0.224,0.168,0.2,0.112,0.224,0.14,0.392,0.336,0.2,0.2,0.168,0.14,0.2,0.168,0.336,0.392,0.14,0.2,0.5,0.588,0.14,0.224,0.112,0.224,0.14,0.2,0.224,0.5,0.112,0.336,0.168,0.336L665,593.724l0.056,0.252,0.056,0.224,0.084,0.252,0.168,0.756,0.028,0.252,0.056,0.252,0.084,0.756v0.252l-0.028.252v1.008l-0.028.28-0.028.364-0.056.336-0.028.28-0.028.252-0.056.252-0.056.336-0.056.364-0.056.28-0.056.336-0.112.364-0.084.252-0.084.224-0.112.252-0.308.924-0.112.252-0.224.448-0.14.2-0.224.448-0.14.2-0.168.224-0.42.588-0.2.2-0.336.364-0.168.168-0.2.14-0.392.336-0.616.392-0.42.224-0.252.084-0.252.112-0.252.084-0.364.084-0.336.056-0.756.084h-0.98l-0.56-.056-0.252-.028-0.476-.14-0.252-.056-0.252-.084-0.252-.056-0.252-.084-0.224-.084-0.252-.112-0.448-.224-0.252-.112-0.224-.112-0.224-.14-0.2-.14-0.2-.168-0.224-.168-0.2-.056-0.252.112-0.224.224-0.168.2-0.2.168-0.2.14-0.28.224-0.308.168-0.28.14-0.336.14-0.392.14-0.364.084Zm0.252-3.976-0.42-.084-0.364-.056-0.28.028-0.252.028-0.252.084-0.224.112-0.224.168-0.168.168-0.14.252-0.084.252-0.028.252,0.056,0.252,0.112,0.224,0.14,0.224,0.2,0.2,0.224,0.14,0.224,0.112,0.56,0.056H649.1l0.336-.056,0.28-.112,0.28-.2,0.252-.224,0.2-.2,0.252-.28,0.2-.364-0.028-.336-0.308-.28-0.42-.2ZM675.5,605.96l0.2-.14,0.2-.084,0.224,0.028,0.224,0.056,0.252,0.028,0.308,0.028,1.008-.112,0.224-.056,0.252-.112,0.448-.224,0.2-.112,0.224-.168,0.2-.14,0.2-.168,0.168-.168,0.364-.392,0.168-.168,0.14-.2,0.168-.224,0.14-.2,0.112-.224,0.28-.448,0.14-.2,0.336-.672,0.084-.252-0.028-.308-0.224-.252-0.336-.056-0.252.14-0.168.252-0.084.168-0.252.476-0.224.448-0.14.2-0.14.224-0.14.2-0.336.392-0.364.364-0.2.168-0.448.28-0.2.112-0.28.112-0.252.056-0.2.028-0.308.028h-0.168l-0.224-.028-0.028-.2,0.14-.308,0.252-.5,0.168-.308,0.084-.252,0.112-.308,0.112-.28,0.084-.28,0.112-.392,0.168-.84,0.028-.28,0.028-.308,0.056-.336v-0.98l-0.112-.5-0.028-.224-0.028-.252-0.084-.252-0.336-.616L677.347,597l-0.168-.2-0.14-.168-0.2-.168-0.308-.168-0.5-.308-0.224-.112-0.252-.084-0.252-.056-0.364-.056-0.448-.056h-0.644l-0.252.028-0.28.028-0.252.056-0.28.084-0.168.056-0.308.112-0.168.056-0.28.112-0.224.112-0.308.168-0.308.2-0.252.168-0.224.168-0.2.14-0.392.336-0.364.364-0.168.2-0.28.448-0.168.2-0.14.2-0.168.224-0.14.224-0.168.336-0.14.336-0.084.252-0.112.224-0.112.252-0.084.252-0.084.224-0.055.252-0.056.28-0.084.5-0.056.252-0.056.224-0.056.252v0.784l-0.028.252,0.028,0.28,0.056,0.5,0.112,0.5,0.167,0.5,0.14,0.224,0.112,0.224,0.14,0.224,0.336,0.392,0.2,0.168,0.448,0.28,0.224,0.112,0.252,0.084,0.2,0.084,0.252,0.084,0.308,0.084,0.5,0.056h0.252l0.308-.028h0.252l0.224-.028,0.28-.056,0.168-.056,0.5-.084,0.28-.084,0.5-.168,0.224-.112,0.448-.28,0.224-.112,0.448-.28,0.392-.336Zm-5.656-3.192v-0.252l0.028-.252,0.084-.252,0.056-.224,0.168-.5,0.056-.224,0.084-.252,0.56-1.12,0.14-.224,0.28-.392,0.14-.224,0.168-.2,0.14-.2,0.2-.2,0.2-.168,0.28-.224,0.252-.168,0.224-.14,0.28-.168,0.252-.084,0.224-.056h0.28l0.364,0.028,0.42,0.084,0.336,0.14,0.224,0.168,0.2,0.28,0.168,0.42,0.112,0.476,0.028,0.448-0.056.952-0.084.476-0.056.364-0.168.756-0.336,1.008-0.084.224-0.112.168-0.168.028-0.2-.056-0.252-.056-0.252.028-0.224.14-0.2.168-0.112.336-0.056.336,0.056,0.252,0.14,0.224,0.112,0.2v0.168l-0.112.2-0.224.168-0.2.168-0.224.14-0.252.14-0.224.112-0.252.112-0.28.056-0.28.028h-0.364l-0.42-.112-0.308-.14-0.224-.2-0.2-.28-0.2-.42-0.112-.448-0.056-.448-0.028-.364-0.028-.28,0.028-.336Zm28.364-1.68-0.336-.028-0.252.168-0.336.672-0.14.224-0.14.252-0.308.616-0.28.448-0.252.448-0.14.224-0.168.224-0.14.2-0.168.168-0.336.392-0.14.2-0.168.2-0.2.168-0.168.168-0.2.168-0.224.224-0.14.112-0.2.2-0.224.168-0.2.14-0.252.14-0.308.168-0.364.112-0.168-.084v-0.28l0.084-.28,0.056-.168,0.084-.28,0.112-.5,0.056-.336,0.084-.364,0.056-.28,0.112-.336L693,604l0.084-.252,0.056-.224,0.084-.252,0.084-.364,0.084-.336,0.056-.252,0.084-.252,0.056-.252,0.112-.336,0.084-.336,0.084-.252,0.112-.5,0.112-.364,0.084-.336,0.084-.28,0.112-.308,0.084-.336,0.084-.28,0.084-.336,0.056-.364,0.084-.252,0.168-.448,0.084-.252,0.028-.252v-0.252l-0.084-.2-0.224-.14-0.252-.084-0.28-.056h-0.532l-0.252.028-0.252.084-0.168.168-0.112.224-0.084.28-0.084.336-0.084.308-0.112.5-0.084.28-0.084.336-0.112.308-0.112.252-0.084.224-0.056.252-0.084.252-0.056.252-0.112.364-0.168.392-0.168.364-0.084.252-0.084.224-0.224.5-0.112.14-0.14.252-0.084.252-0.112.224-0.14.252-0.14.2-0.168.224-0.168.252-0.084.14-0.2.252-0.14.2-0.168.2-0.336.336-0.28.224-0.112.112-0.224.2-0.224.168-0.2.168-0.224.14-0.252.084-0.252.056-0.252-.028-0.252-.056-0.252-.084-0.168-.168-0.112-.252-0.028-.252v-0.532l0.028-.252,0.056-.28,0.056-.252,0.084-.308,0.028-.168,0.056-.28,0.056-.252,0.084-.252,0.056-.224,0.056-.252,0.028-.252,0.168-.5,0.112-.5,0.084-.336,0.084-.364,0.112-.252,0.056-.252,0.056-.224,0.168-.756,0.084-.252,0.056-.252,0.056-.224,0.168-.756,0.084-.252,0.056-.252,0.028-.252V596.3l-0.112-.2-0.224-.14-0.224-.056-0.28-.028h-0.252l-0.28.028-0.252.028-0.252.112-0.14.168-0.084.224-0.168.756-0.084.252-0.056.252-0.168.5-0.084.224-0.028.252-0.084.28-0.084.224-0.168.5-0.056.2-0.084.252-0.112.28-0.168.5-0.084.224-0.224,1.008-0.084.252-0.056.252-0.084.252-0.028.252-0.056.28-0.056.2-0.056.28-0.028.28-0.056.364-0.028.336v0.28l0.028,0.364v0.336l0.028,0.28,0.112,0.336,0.14,0.308,0.14,0.224,0.2,0.168,0.224,0.168,0.308,0.14,0.28,0.112,0.252,0.056,0.308,0.056,0.252,0.028,0.364-.056,0.336-.028,0.5-.112,0.252-.084,0.336-.168,0.28-.168,0.252-.112,0.2-.14,0.224-.168,0.252-.252,0.28-.224,0.336-.336,0.2-.224,0.168-.2,0.28-.392,0.168-.2,0.14-.2,0.168-.2,0.14-.2h0.028l-0.056.252-0.056.28-0.224.672-0.056.252-0.084.252-0.14.476-0.084.252-0.084.224-0.084.252-0.056.252-0.056.224-0.084.252-0.14.224-0.252.224-0.308.14-0.252.14-0.336.14-0.364.168-0.168.056-0.728.336-0.14.084-0.28.14-0.224.14-0.756.532-0.252.168-0.224.14-0.5.5-0.2.224-0.2.308-0.168.308-0.112.252-0.084.224-0.056.252-0.056.224-0.056.252-0.028.252v0.252l0.056,0.336,0.084,0.336,0.14,0.28,0.224,0.28,0.308,0.308,0.28,0.224,0.28,0.112,0.336,0.112,0.448,0.084h0.756l0.336-.056,0.392-.084,0.336-.112,0.252-.14,0.308-.168,0.28-.2,0.224-.168,0.2-.168,0.168-.168,0.336-.392,0.14-.2,0.224-.448,0.14-.252,0.056-.168,0.14-.252,0.084-.224,0.112-.252,0.14-.336,0.112-.336,0.056-.28,0.084-.252,0.084-.28,0.252-.756,0.056-.252,0.168-.5,0.168-.168,0.2-.168,0.308-.14,0.5-.252,0.616-.392,0.168-.112,0.476-.308,0.224-.2,0.2-.168,0.364-.308,0.2-.2,0.14-.168,0.364-.364,0.2-.168,0.168-.224,0.224-.28,0.2-.252,0.168-.224,0.14-.224,0.14-.252,0.112-.14,0.28-.448,0.112-.252,0.14-.308,0.168-.308,0.168-.252,0.168-.308,0.252-.5,0.112-.28,0.112-.224-0.028-.308Zm-9.044,9.94-0.112.42-0.112.336-0.084.28-0.084.2-0.112.252-0.14.28-0.14.224-0.168.2-0.14.224-0.2.224-0.448.28-0.28.084h-0.364l-0.364-.168-0.252-.252-0.056-.252,0.028-.336,0.14-.42,0.252-.392,0.28-.364,0.448-.448,0.224-.168,0.2-.168,0.588-.336,0.2-.14,0.224-.168,0.224-.14,0.28-.112,0.14,0.084-0.056.336Zm16.1-5.068,0.2-.14,0.2-.084,0.224,0.028,0.224,0.056,0.252,0.028,0.308,0.028,1.008-.112,0.224-.056,0.252-.112,0.448-.224,0.2-.112,0.224-.168,0.2-.14,0.2-.168,0.168-.168,0.364-.392,0.168-.168,0.14-.2,0.168-.224,0.14-.2,0.112-.224,0.28-.448,0.14-.2,0.336-.672,0.084-.252-0.028-.308-0.224-.252-0.336-.056-0.252.14-0.168.252-0.084.168-0.252.476-0.224.448-0.14.2-0.14.224-0.14.2-0.336.392-0.364.364-0.2.168-0.448.28-0.2.112-0.28.112-0.252.056-0.2.028-0.308.028h-0.168l-0.224-.028-0.028-.2,0.14-.308,0.252-.5,0.168-.308,0.084-.252,0.112-.308,0.112-.28,0.084-.28,0.112-.392,0.168-.84,0.028-.28,0.028-.308,0.056-.336v-0.98l-0.112-.5-0.028-.224-0.028-.252-0.084-.252-0.336-.616L707.111,597l-0.168-.2-0.14-.168-0.2-.168L706.3,596.3l-0.5-.308-0.224-.112-0.252-.084-0.252-.056-0.364-.056-0.448-.056h-0.644l-0.252.028-0.28.028-0.252.056-0.28.084-0.168.056-0.308.112-0.168.056-0.28.112-0.224.112-0.308.168-0.308.2-0.252.168-0.224.168-0.2.14-0.392.336-0.364.364-0.168.2-0.28.448-0.168.2-0.14.2-0.168.224-0.14.224-0.168.336-0.14.336-0.084.252-0.112.224-0.112.252-0.084.252-0.084.224-0.056.252-0.056.28-0.084.5-0.056.252-0.056.224-0.056.252v0.784l-0.028.252,0.028,0.28,0.056,0.5,0.112,0.5,0.168,0.5,0.14,0.224,0.112,0.224,0.14,0.224,0.336,0.392L698.4,607l0.448,0.28,0.224,0.112,0.252,0.084,0.2,0.084,0.252,0.084,0.308,0.084,0.5,0.056h0.252l0.308-.028H701.4l0.224-.028,0.28-.056,0.168-.056,0.5-.084,0.28-.084,0.5-.168,0.224-.112,0.448-.28,0.224-.112,0.448-.28,0.392-.336Zm-5.656-3.192v-0.252l0.028-.252,0.084-.252,0.056-.224,0.168-.5L700,601.06l0.084-.252,0.56-1.12,0.14-.224,0.28-.392,0.14-.224,0.168-.2,0.14-.2,0.2-.2,0.2-.168,0.28-.224,0.252-.168,0.224-.14,0.28-.168,0.252-.084,0.224-.056h0.28l0.364,0.028,0.42,0.084,0.336,0.14,0.224,0.168,0.2,0.28,0.168,0.42,0.112,0.476,0.028,0.448-0.056.952-0.084.476-0.056.364-0.168.756-0.336,1.008-0.084.224-0.112.168-0.168.028-0.2-.056-0.252-.056-0.252.028-0.224.14-0.2.168-0.112.336-0.056.336,0.056,0.252,0.14,0.224,0.112,0.2v0.168l-0.112.2-0.224.168-0.2.168-0.224.14-0.252.14-0.224.112-0.252.112-0.28.056-0.28.028h-0.364l-0.42-.112-0.308-.14-0.224-.2-0.2-.28-0.2-.42-0.112-.448-0.056-.448-0.028-.364-0.028-.28,0.028-.336Zm19.6-6.832-0.2.14-0.14.224-0.112.224-0.084.252-0.056.224-0.168.5-0.084.224-0.168.5-0.056.224-0.056.252-0.112.252-0.084.224-0.084.252-0.084.224-0.084.252-0.112.5-0.084.224-0.112.252-0.084.224-0.084.252-0.084.224-0.084.252-0.084.224-0.112.252-0.112.224-0.14.252-0.224.448-0.2.308-0.168.28-0.168.252-0.14.2-0.5.588-0.168.168-0.392.336-0.224.14-0.252.14-0.224.112-0.2.084-0.224.112-0.5.112-0.336-.056-0.364-.224-0.224-.392-0.056-.448v-0.5l0.056-.448,0.084-.364,0.056-.252,0.084-.252,0.056-.224,0.112-.5,0.084-.252,0.056-.252,0.028-.252,0.112-.5,0.084-.224,0.056-.252,0.084-.252,0.112-.308,0.056-.168,0.112-.364,0.084-.364,0.084-.252,0.084-.308,0.084-.14,0.112-.336,0.028-.168,0.112-.28,0.168-.5,0.056-.224,0.084-.252,0.056-.252v-0.224l-0.112-.168-0.224-.112-0.252-.084-0.252-.056-0.252-.028-0.28.056-0.252.056-0.252.112-0.2.14-0.112.224-0.084.252-0.084.336-0.14.336-0.084.252-0.084.224-0.308.924-0.084.28-0.392,1.176-0.028.224-0.084.252-0.056.252-0.084.224-0.2.588-0.084.336-0.084.252-0.112.5-0.084.364-0.056.336-0.028.252-0.056.252-0.028.252-0.056.252-0.028.252v0.756l0.028,0.28,0.028,0.252L709.8,606.3l0.112,0.252,0.28,0.392,0.2,0.2,0.392,0.28L711,607.528l0.252,0.084,0.2,0.056L711.7,607.7l0.28,0.028,0.252,0.028,0.252-.028,1.008-.224,0.252-.084,0.448-.224,0.448-.252,0.224-.14,0.2-.14,0.168-.2,0.532-.532,0.5-.588,0.168-.224,0.28-.392,0.14-.224,0.084-.14,0.028,0.112-0.056.28-0.028.28,0.028,0.364,0.056,0.448,0.112,0.448,0.14,0.336,0.168,0.252,0.224,0.252,0.252,0.224,0.28,0.112,0.336,0.084,0.336,0.028,0.252-.028,0.5-.112,0.672-.336,0.448-.28,0.392-.336,0.168-.168,0.364-.336,0.336-.392,0.168-.224,0.14-.2,0.336-.392,0.14-.2,0.28-.448,0.14-.2,0.28-.448,0.112-.224,0.084-.252,0.224-.448,0.14-.224,0.14-.2,0.112-.224,0.084-.252-0.028-.28-0.224-.28-0.336-.084-0.224.14-0.168.224-0.252.5-0.14.308-0.14.28-0.168.28-0.112.14-0.14.252-0.14.224-0.112.252-0.112.2-0.168.2-0.168.224-0.28.392-0.336.392-0.2.14-0.2.168-0.2.2-0.392.28-0.252.112-0.224.028-0.252-.028-0.2-.112-0.14-.2-0.084-.252-0.056-.5v-0.252l0.028-.252v-0.252l0.028-.28,0.056-.364,0.056-.336,0.084-.28,0.084-.364,0.084-.336,0.168-.756,0.084-.252,0.056-.252,0.056-.224,0.084-.252,0.056-.2,0.084-.252,0.084-.28,0.084-.224,0.084-.252,0.112-.5,0.112-.224,0.084-.252,0.056-.224,0.084-.252,0.224-.448,0.2-.588,0.084-.336L721,596.16l-0.224-.14-0.224-.084-0.28-.056-0.252-.028-0.28-.028-0.28.028Zm18.228,10.024,0.2-.14,0.2-.084,0.224,0.028,0.224,0.056,0.252,0.028,0.308,0.028,1.008-.112,0.224-.056,0.252-.112,0.448-.224,0.2-.112,0.224-.168,0.2-.14,0.2-.168,0.168-.168,0.364-.392,0.168-.168,0.14-.2,0.168-.224,0.14-.2,0.112-.224,0.28-.448,0.14-.2,0.336-.672,0.084-.252-0.028-.308-0.224-.252-0.336-.056-0.252.14-0.168.252-0.084.168-0.252.476-0.224.448-0.14.2-0.14.224-0.14.2-0.336.392-0.364.364-0.2.168-0.448.28-0.2.112-0.28.112-0.252.056-0.2.028-0.308.028h-0.168l-0.224-.028-0.028-.2,0.14-.308,0.252-.5,0.168-.308,0.084-.252,0.112-.308,0.112-.28,0.084-.28,0.112-.392,0.168-.84,0.028-.28,0.028-.308,0.056-.336v-0.98l-0.112-.5-0.028-.224-0.028-.252-0.084-.252-0.336-.616L739.282,597l-0.168-.2-0.14-.168-0.2-.168-0.308-.168-0.5-.308-0.224-.112-0.252-.084-0.252-.056-0.364-.056-0.448-.056h-0.644l-0.252.028-0.28.028L735,595.74l-0.28.084-0.168.056-0.308.112-0.168.056-0.28.112-0.224.112-0.308.168-0.308.2-0.252.168-0.224.168-0.2.14-0.392.336-0.364.364-0.168.2-0.28.448-0.168.2-0.14.2-0.168.224-0.14.224-0.168.336-0.14.336-0.084.252-0.112.224-0.112.252-0.084.252-0.084.224-0.056.252-0.056.28-0.084.5-0.056.252-0.056.224-0.056.252v0.784l-0.028.252,0.028,0.28,0.056,0.5,0.112,0.5,0.168,0.5,0.14,0.224,0.112,0.224,0.14,0.224,0.336,0.392,0.2,0.168,0.448,0.28,0.224,0.112,0.252,0.084,0.2,0.084,0.252,0.084,0.308,0.084,0.5,0.056h0.252l0.308-.028h0.252l0.224-.028,0.28-.056,0.168-.056,0.5-.084,0.28-.084,0.5-.168,0.224-.112,0.448-.28,0.224-.112,0.448-.28,0.392-.336Zm-5.656-3.192v-0.252l0.028-.252,0.084-.252,0.056-.224,0.168-.5,0.056-.224,0.084-.252,0.56-1.12,0.14-.224,0.28-.392,0.14-.224,0.168-.2,0.14-.2,0.2-.2,0.2-.168,0.28-.224,0.252-.168,0.224-.14,0.28-.168,0.252-.084,0.224-.056h0.28l0.364,0.028,0.42,0.084,0.336,0.14,0.224,0.168,0.2,0.28,0.168,0.42,0.112,0.476,0.028,0.448-0.056.952-0.084.476-0.056.364-0.168.756-0.336,1.008-0.084.224-0.112.168-0.168.028-0.2-.056-0.252-.056-0.252.028-0.224.14-0.2.168-0.112.336-0.056.336,0.056,0.252,0.14,0.224,0.112,0.2v0.168l-0.112.2-0.224.168-0.2.168-0.224.14-0.252.14-0.224.112-0.252.112-0.28.056-0.28.028h-0.364l-0.42-.112-0.308-.14-0.224-.2-0.2-.28-0.2-.42-0.112-.448-0.056-.448-0.028-.364-0.028-.28,0.028-.336Zm17.079,2.268,0.14-.14h0.028l0.028,0.2v0.364l0.084,0.448,0.112,0.42,0.112,0.364,0.14,0.252,0.2,0.252,0.252,0.224,0.252,0.112,0.364,0.112,0.42,0.084,0.364,0.028h0.28l0.28-.056,0.336-.056,0.336-.084,0.28-.112,0.252-.084,0.224-.112,0.252-.084,0.252-.14,0.224-.112,0.2-.112,0.224-.14,0.224-.112,0.224-.168,0.2-.14,0.364-.364,0.2-.168,0.224-.028,0.224,0.028,0.252,0.084,0.224,0.056h0.9l0.336-.028,0.252-.028,0.252-.056,0.7-.308,0.308-.168,0.28-.2,0.224-.168,0.2-.14,0.336-.392,0.14-.168,0.336-.392,0.14-.2,0.168-.224,0.168-.308,0.2-.28,0.112-.252,0.336-.672,0.084-.224V601.34l-0.2-.28-0.364-.028-0.224.14-0.168.2-0.112.224-0.112.252-0.168.308-0.168.28-0.14.224-0.168.224-0.168.2-0.2.28-0.224.252-0.224.2-0.252.224-0.224.168-0.5.28-0.252.056-0.476.14-0.252.028h-0.252l-0.28-.056-0.14-.14,0.084-.168,0.168-.2,0.14-.2,0.168-.224,0.14-.2,0.28-.448,0.112-.2,0.112-.224,0.14-.308,0.056-.168,0.252-.5,0.084-.252,0.112-.224,0.168-.5,0.056-.252,0.084-.224,0.168-.5,0.056-.252,0.084-.224,0.056-.252,0.056-.28,0.056-.252,0.056-.5,0.028-.28,0.056-.5v-0.532l-0.112-.308-0.28-.28-0.392-.14-0.448-.028-0.448.056-0.336.168-0.168.252-0.056.5v0.28l-0.028.336-0.056.364-0.056.28-0.084.364-0.056.336-0.056.252-0.084.252-0.056.252-0.112.364-0.084.336-0.2.588-0.084.364-0.112.252-0.112.224-0.112.252-0.168.308-0.14.308-0.28.448-0.14.168-0.168.028-0.252-.028-0.336-.028-0.308.084-0.224.168-0.168.28-0.084.336,0.056,0.28,0.112,0.308,0.028,0.28-0.112.224-0.2.168-0.224.14-0.224.168-0.224.112-0.252.112-0.5.168-0.252.056h-0.28l-0.224-.084-0.224-.14-0.168-.2-0.084-.252-0.028-.252v-0.252l0.028-.28,0.084-.756,0.028-.28,0.168-.672,0.056-.252,0.084-.252,0.056-.252,0.084-.364,0.084-.448,0.112-.364,0.084-.252,0.14-.364,0.14-.42,0.084-.364,0.112-.252,0.084-.336,0.112-.336,0.112-.252,0.084-.224,0.112-.252,0.084-.336,0.2-.588,0.084-.224,0.084-.252v-0.224l-0.14-.2-0.224-.14-0.252-.056-0.28-.028-0.252.028-0.28.028-0.252.056-0.252.084-0.168.168-0.112.224-0.084.224-0.112.308-0.056.14-0.112.308-0.084.224-0.252.756-0.056.252-0.084.252-0.084.224-0.112.252-0.056.252-0.084.252-0.056.224-0.084.252-0.112.252-0.084.252-0.056.252-0.28.84-0.14.308-0.112.28-0.168.308-0.448.84-0.2.308-0.168.224-0.224.252-0.224.28-0.168.2-0.168.168-0.224.168-0.28.224-0.392.224-0.448.2-0.448.084-0.364.028-0.252-.084-0.2-.112-0.14-.2-0.112-.224-0.056-.252-0.028-.252v-0.252l0.084-.756,0.112-.5,0.028-.224,0.056-.252,0.056-.28,0.168-.672,0.056-.252,0.168-.476,0.056-.252,0.056-.224,0.084-.252,0.056-.252,0.084-.224,0.056-.252,0.252-.672,0.084-.28,0.308-.924,0.056-.224,0.084-.252,0.084-.224,0.084-.252,0.084-.224,0.056-.252,0.028-.224-0.14-.2-0.252-.112-0.252-.084-0.252-.028-0.28-.028h-0.252l-0.28.056-0.224.112-0.168.168-0.14.224-0.308.924-0.112.252-0.084.224-0.084.252-0.084.336-0.112.336-0.112.252-0.14.476-0.224.672-0.084.28-0.084.336-0.2.588-0.112.5-0.168.672-0.224,1.008-0.028.224-0.112.5-0.056.5v0.252l-0.028.252v0.252l0.028,0.28L742,606.016l0.056,0.224,0.112,0.252,0.14,0.224,0.336,0.392,0.2,0.14,0.2,0.168,0.252,0.112,0.224,0.084,0.252,0.056,0.252,0.028,0.28,0.028h0.252l0.252-.028,0.224-.056,0.252-.028,0.476-.14,0.252-.084,0.224-.084,0.252-.084,0.2-.14,0.224-.14,0.2-.14,0.224-.14,0.2-.14,0.2-.168,0.2-.14,0.336-.392,0.2-.224,0.084-.112,0.2-.252Zm18.62-7.588,0.252-.028,0.252,0.028,0.252,0.084,0.252,0.252,0.168,0.28,0.056,0.28-0.028.252-0.112.532-0.028.252-0.112.5-0.112.364-0.084.448-0.112.448-0.112.364-0.084.252-0.112.364-0.112.448-0.112.476-0.084.476-0.252.924-0.084.364-0.028.28-0.056.364v0.616l0.056,0.224,0.056,0.252,0.084,0.224,0.112,0.252,0.168,0.2,0.168,0.14,0.224,0.14,0.224,0.084,0.252,0.084,0.224,0.056,0.252,0.028h0.252l0.28-.028,0.224-.028,0.252-.056,0.252-.084,0.224-.084,0.448-.224,0.224-.14,0.224-.168,0.168-.168,0.392-.336,0.168-.2,0.308-.336,0.168-.2,0.2-.252,0.168-.224,0.112-.14,0.168-.252,0.28-.448,0.14-.252,0.056-.168,0.28-.5,0.084-.168,0.168-.252,0.112-.224,0.14-.224,0.112-.224,0.112-.252,0.112-.224,0.084-.252v-0.28l-0.224-.28L774.225,601l-0.252.168-0.14.224-0.084.252-0.084.224-0.112.252-0.224.448-0.14.252-0.168.252-0.084.14-0.168.252-0.252.42-0.168.252-0.14.2-0.2.224-0.14.2-0.168.224-0.14.2-0.364.364-0.224.168-0.2.14-0.224.14-0.252.112-0.252.084-0.252-.028-0.2-.14-0.112-.224v-0.5l0.028-.252,0.168-.756,0.056-.224,0.084-.252,0.056-.252,0.056-.2L770,603.1l0.112-.392,0.112-.448,0.112-.476,0.084-.364,0.084-.252,0.112-.364,0.112-.42,0.084-.364,0.084-.28,0.056-.168,0.056-.28,0.056-.252,0.028-.224v-0.252l0.028-.252v-0.532l-0.056-.336-0.084-.336-0.084-.252-0.112-.224-0.14-.224-0.14-.2-0.2-.2-0.252-.14-0.252-.112-0.308-.056-0.448-.056H768.4l-0.336.056-0.364.084-0.252.084-0.224.084L767,596.1l-0.224.112-0.224.14-0.56.448-0.364.364-0.2.168-0.364.308-0.2.168-0.336.392-0.14.2-0.168.2-0.112.14-0.028-.028,0.028-.168,0.056-.252,0.084-.252,0.056-.252,0.084-.224,0.056-.252,0.084-.252,0.056-.2,0.056-.28-0.056-.336-0.28-.28-0.42-.14-0.448-.056-0.448.056-0.364.2-0.2.28-0.112.5-0.084.252-0.056.224-0.168.5-0.056.252-0.084.336-0.084.364-0.084.252-0.056.252-0.084.224-0.056.252-0.084.252-0.056.252-0.056.224-0.14.5-0.112.364-0.084.336-0.084.252-0.056.252-0.084.252-0.028.252-0.056.224-0.112.5-0.084.224-0.084.252-0.056.252-0.056.224-0.056.252-0.084.252-0.084.224-0.056.252-0.084.252-0.056.252-0.084.336-0.084.364-0.056.28,0.028,0.308,0.168,0.252,0.224,0.112,0.364,0.056,0.42,0.028,0.364-.028,0.252-.028,0.252-.084,0.168-.14,0.084-.224,0.056-.224,0.028-.252,0.084-.28,0.056-.308,0.084-.364,0.084-.252,0.084-.364,0.112-.42,0.112-.364,0.168-.756,0.112-.364,0.112-.42,0.084-.364,0.308-.924,0.336-.672,0.168-.224,0.28-.448,0.336-.392,0.2-.2,0.336-.392,0.2-.2,0.2-.168,0.2-.14,0.448-.308,0.2-.168,0.224-.168,0.2-.14,0.2-.112,0.224-.112Zm-72.123,40.3h0.56l0.28-.028,0.224-.056,0.252-.084,0.672-.336,0.224-.14,0.392-.336,0.168-.168,0.168-.2,0.364-.364,0.308-.392,0.168-.224,0.28-.42,0.14-.2,0.42-.672,0.14-.2,0.14-.224,0.168-.28,0.2-.336,0.252-.5,0.112-.2,0.084-.224,0.14-.252,0.112-.252V631.4l-0.224-.28-0.336-.056-0.252.14-0.112.224-0.168.252-0.084.14-0.252.5-0.112.252-0.98,1.568-0.168.224-0.14.14-0.336.448-0.14.2-0.392.392-0.2.14-0.224.168-0.224.112-0.2.112-0.224.056-0.28.028-0.168-.168-0.084-.336L696,635.2l0.056-.476,0.056-.364,0.056-.28,0.14-.672,0.084-.28,0.084-.336,0.112-.336,0.084-.28,0.084-.308,0.056-.364,0.084-.252,0.112-.364,0.42-1.344,0.084-.364,0.112-.5,0.028-.28,0.028-.252v-0.5l-0.028-.224-0.028-.252-0.084-.252-0.056-.224-0.112-.224-0.14-.224-0.168-.168-0.252-.168-0.336-.14-0.336-.084-0.252-.056h-0.252l-0.2.028-0.476.028-0.336.056-0.252.056-0.252.112-0.224.112-0.2.14-0.224.168-0.42.336-0.2.14-0.168.2-0.364.42-0.112.14-0.2.224-0.308.392-0.168.2-0.168.224-0.112.14h-0.028l0.028-.2,0.028-.364,0.028-.336v-0.252l-0.028-.252-0.084-.252-0.084-.224-0.224-.448-0.168-.2-0.168-.168-0.2-.14-0.224-.112-0.224-.084-0.252-.056-0.252-.028h-0.476l-0.28.028-0.28.084-0.224.084-0.252.112-0.224.14-0.2.14-0.448.308-0.392.336-0.14.168-0.168.168-0.2.252-0.168.2-0.14.224-0.168.2-0.14.224-0.168.224-0.14.252-0.112.056,0.028-.168,0.112-.5,0.084-.252,0.056-.28,0.084-.252,0.056-.252,0.084-.252,0.084-.28,0.028-.252-0.112-.2-0.224-.168-0.252-.112-0.28-.056-0.56-.056-0.28.056-0.28.084-0.2.14-0.112.252-0.084.224-0.28,1.26-0.056.224-0.112.5-0.112.364-0.112.336-0.056.252-0.084.252-0.028.252-0.056.252-0.084.252-0.084.336-0.084.364-0.168.5-0.056.252-0.084.336-0.084.364-0.084.252-0.056.252-0.084.224-0.056.252-0.084.252-0.056.224-0.168.5-0.056.252-0.084.336-0.084.364-0.056.252-0.084.28-0.056.168-0.112.28-0.056.252,0.056,0.336,0.28,0.28,0.448,0.168,0.448,0.028,0.476-.028,0.392-.2,0.2-.252,0.084-.28,0.084-.252,0.056-.252,0.056-.2,0.056-.252,0.084-.28,0.056-.28,0.084-.252,0.112-.5,0.084-.252,0.168-.756,0.056-.28,0.056-.252,0.168-.5,0.056-.252,0.084-.252,0.112-.252,0.364-.728,0.2-.308,0.168-.252,0.2-.28,0.2-.308,0.112-.14,0.168-.252,0.112-.224,0.14-.2,0.168-.2,0.252-.252,0.252-.224,0.392-.336,0.2-.2,0.28-.168,0.336-.14,0.252-.056,0.336,0.056,0.28,0.14,0.168,0.224,0.028,0.364v0.476l-0.084.448-0.056.364-0.084.28-0.084.336-0.168.588-0.056.224-0.084.28-0.056.336-0.084.336-0.084.252-0.084.224-0.168.756-0.168.672-0.056.28-0.084.364-0.112.448-0.14.448-0.084.364-0.112.28-0.084.336-0.056.336-0.028.28-0.028.252,0.14,0.168,0.224,0.112,0.252,0.056h0.28l0.28,0.028,0.28-.028,0.252-.056,0.252-.112,0.168-.168,0.112-.224,0.084-.252,0.056-.224,0.084-.252,0.112-.364,0.112-.448,0.084-.364,0.028-.28,0.168-.672,0.084-.28,0.112-.336,0.084-.336,0.084-.28,0.084-.336,0.112-.336,0.056-.252,0.168-.5,0.084-.224,0.252-.448,0.112-.252,0.112-.224,0.14-.224,0.168-.2,0.14-.224,0.14-.2,0.14-.224,0.168-.224,0.168-.2,0.2-.168,0.168-.2,0.392-.336,0.224-.168,0.672-.42,0.224-.084,0.252-.056,0.28,0.028,0.224,0.056,0.168,0.168,0.112,0.224,0.028,0.252-0.028.28-0.028.252-0.168.756-0.028.252-0.112.5-0.056.224-0.084.252-0.056.252-0.084.252-0.056.252-0.112.364-0.084.336-0.056.252-0.084.252-0.056.252-0.084.252-0.056.224-0.084.308-0.056.252-0.056.2-0.112.5-0.056.5-0.028.28-0.056.5,0.028,0.28,0.028,0.252,0.084,0.252,0.14,0.224,0.336,0.392,0.224,0.168,0.224,0.112,0.252,0.084,0.252,0.056Zm13.58-11.816-0.2.14-0.14.224-0.112.224-0.084.252-0.056.224-0.168.5-0.084.224-0.168.5-0.056.224-0.056.252-0.112.252-0.084.224-0.084.252-0.084.224-0.084.252-0.112.5-0.084.224-0.112.252-0.084.224-0.084.252-0.084.224-0.084.252-0.084.224-0.112.252-0.112.224-0.14.252-0.224.448-0.2.308-0.168.28-0.168.252-0.14.2-0.5.588-0.168.168-0.392.336-0.224.14-0.252.14-0.224.112-0.2.084-0.224.112-0.5.112-0.336-.056-0.364-.224-0.224-.392-0.056-.448v-0.5l0.056-.448,0.084-.364,0.056-.252,0.084-.252,0.056-.224,0.112-.5,0.084-.252,0.056-.252,0.028-.252,0.112-.5,0.084-.224,0.056-.252,0.084-.252,0.112-.308,0.056-.168,0.112-.364,0.084-.364,0.084-.252,0.084-.308,0.084-.14,0.112-.336,0.028-.168,0.112-.28,0.168-.5,0.056-.224,0.084-.252,0.056-.252v-0.224l-0.112-.168-0.224-.112-0.252-.084-0.252-.056-0.252-.028-0.28.056-0.252.056-0.252.112-0.2.14-0.112.224-0.084.252-0.084.336-0.14.336-0.084.252-0.084.224-0.308.924-0.084.28-0.392,1.176-0.028.224-0.084.252-0.056.252-0.084.224-0.2.588-0.084.336-0.084.252-0.112.5-0.084.364-0.056.336-0.028.252-0.056.252-0.028.252-0.056.252-0.028.252v0.756l0.028,0.28,0.028,0.252,0.084,0.224,0.112,0.252,0.28,0.392,0.2,0.2,0.392,0.28,0.224,0.112,0.252,0.084,0.2,0.056,0.252,0.028,0.28,0.028,0.252,0.028,0.252-.028,1.008-.224,0.252-.084,0.448-.224,0.448-.252,0.224-.14,0.2-.14,0.168-.2,0.532-.532,0.5-.588,0.168-.224,0.28-.392,0.14-.224,0.084-.14,0.028,0.112-0.056.28-0.028.28,0.028,0.364,0.056,0.448,0.112,0.448,0.14,0.336,0.168,0.252,0.224,0.252,0.252,0.224,0.28,0.112,0.336,0.084,0.336,0.028,0.252-.028,0.5-.112,0.672-.336,0.448-.28,0.392-.336,0.168-.168,0.364-.336,0.336-.392,0.168-.224,0.14-.2,0.336-.392,0.14-.2,0.28-.448,0.14-.2,0.28-.448,0.112-.224,0.084-.252,0.224-.448,0.14-.224,0.14-.2,0.112-.224,0.084-.252-0.028-.28-0.224-.28-0.336-.084-0.224.14-0.168.224-0.252.5-0.14.308-0.14.28-0.168.28-0.112.14-0.14.252-0.14.224-0.112.252-0.112.2-0.168.2-0.168.224-0.28.392-0.336.392-0.2.14-0.2.168-0.2.2-0.392.28-0.252.112-0.224.028-0.252-.028-0.2-.112-0.14-.2-0.084-.252-0.056-.5v-0.252l0.028-.252v-0.252l0.028-.28,0.056-.364,0.056-.336,0.084-.28,0.084-.364,0.084-.336,0.168-.756,0.084-.252,0.056-.252,0.056-.224,0.084-.252,0.056-.2,0.084-.252,0.084-.28,0.084-.224,0.084-.252,0.112-.5,0.112-.224,0.084-.252,0.056-.224,0.084-.252,0.224-.448,0.2-.588,0.084-.336-0.112-.224-0.224-.14-0.224-.084L710,625.88l-0.252-.028-0.28-.028-0.28.028Zm22.288,5.152-0.364-.056-0.252.14-0.14.224-0.084.2-0.14.224-0.168.308-0.084.14-0.168.252-0.112.252-0.14.224-0.112.2-0.28.448-0.14.2-0.168.224-0.28.392-0.336.392-0.2.2-0.168.2-0.2.168-0.2.14-0.224.14-0.224.112-0.252.084-0.252.112-0.224.084-0.252.028h-0.252l-0.252-.028-0.252-.112-0.2-.14-0.168-.2-0.14-.224-0.112-.336-0.056-.336-0.028-.28-0.028-.252v-1.12l0.056-.336,0.084-.252,0.084-.756,0.084-.252,0.056-.364,0.224-.9,0.14-.476,0.112-.448,0.112-.476,0.084-.448,0.084-.364,0.084-.252,0.14-.28,0.2-.2,0.224-.056,0.308,0.028h0.2l0.336,0.028h0.2l0.308,0.028h0.252l0.28-.028,0.252-.028,0.28-.028,0.28-.084,0.308-.168,0.224-.224,0.112-.252,0.028-.252-0.028-.224-0.056-.252-0.2-.14-0.336-.028-1.4.028-0.364.028-0.28-.028-0.28-.056-0.14-.224,0.056-.336,0.056-.168,0.14-.364,0.112-.336,0.084-.28,0.056-.168,0.084-.28,0.084-.224,0.392-1.176,0.14-.336,0.2-.588,0.14-.336,0.112-.336,0.112-.252,0.056-.364-0.028-.392-0.2-.252-0.252-.112-0.224-.084-0.252-.028-0.28-.028h-0.252l-0.252.056-0.2.112-0.14.224-0.084.224-0.112.252-0.084.252-0.112.224-0.084.252-0.112.224-0.084.252-0.2.476-0.168.5-0.056.252-0.084.224-0.084.252-0.112.252-0.084.28-0.084.14-0.084.28-0.168.5-0.084.224-0.084.252-0.056.252-0.084.252-0.14.2-0.252.084h-0.868l-0.42.14-0.224.224-0.056.252v0.252l0.056,0.252,0.224,0.224,0.42,0.168,0.364,0.14,0.2,0.252-0.056.42-0.112.392-0.056.168-0.084.308-0.056.252-0.084.364-0.084.336-0.168.756-0.084.252-0.084.224-0.056.252-0.112.252-0.112.2-0.336.448-0.084.168-0.168.252-0.168.2-0.28.42-0.168.224-0.168.2-0.2.2-0.112.14-0.588.588-0.588.5-0.224.168-0.2.14-0.448.28-0.224.112-0.252.14-0.14.084-0.28.112-0.224.112-0.252.056-0.252.084H716.55l-0.224-.084-0.252-.084-0.2-.168-0.168-.168-0.28-.448-0.168-.5-0.056-.224-0.028-.252-0.028-.28v-0.252l-0.028-.252v-0.756l0.028-.28,0.056-.252,0.028-.252,0.056-.336,0.056-.308,0.084-.28,0.14-.252,0.2-.14,0.224-.112,0.448-.28,0.392-.28,0.224-.14,0.224-.2,0.2-.14,0.168-.14,0.168-.168,0.392-.336,0.364-.308,0.2-.168,0.168-.2,0.336-.364,0.336-.392,0.224-.252,0.2-.28,0.2-.252,0.168-.2,0.28-.392,0.168-.224,0.2-.28,0.168-.308,0.14-.224,0.112-.224,0.112-.252,0.14-.336,0.14-.308,0.112-.252,0.392-1.176,0.056-.252,0.028-.252V621.6l0.056-.5,0.028-.28-0.028-.252-0.056-.336-0.084-.336-0.112-.252-0.224-.448-0.14-.224L721.7,618.8l-0.168-.2-0.2-.14-0.224-.112-0.252-.084-0.224-.056-0.252-.056H719.91l-0.28.056-0.224.084-0.2.084-0.252.112-0.336.2-0.308.2-0.392.336-0.168.2-0.28.392-0.14.224-0.364.532-0.252.364-0.2.308-0.28.448-0.14.252-0.14.336-0.168.364-0.14.336-0.112.308-0.168.336-0.168.42-0.28.588-0.084.252-0.056.252-0.308.924-0.056.224-0.084.252-0.056.224L714.2,627l-0.056.224-0.056.252L714,627.7l-0.168.616-0.084.336-0.084.252-0.056.252-0.056.224-0.056.308-0.028.14-0.056.308-0.028.252-0.056.364-0.056.448-0.14.644-0.028.364-0.056.336V632.8l-0.028.252,0.028,0.28v0.7l0.028,0.252v0.5l0.056,0.252,0.056,0.308,0.112,0.336,0.084,0.28,0.112,0.252,0.112,0.224,0.168,0.224,0.252,0.252,0.336,0.28,0.308,0.2,0.28,0.112,0.308,0.084,0.336,0.056,0.308,0.056,0.252,0.028,0.252-.028,0.28-.056,0.168-.028,0.728-.168,0.28-.084,0.168-.056,0.28-.084,0.5-.252,0.14-.056,0.28-.168,0.28-.2,0.28-.224,0.392-.336,0.168-.168,0.224-.2,0.112-.14,0.2-.2,0.2-.224,0.336-.336,0.224-.28,0.392-.5,0.168-.168,0.14,0.056,0.028,0.252,0.028,0.28v0.252l0.056,0.5,0.028,0.224,0.056,0.252,0.084,0.252,0.112,0.224,0.084,0.224,0.112,0.224,0.14,0.224,0.14,0.2,0.168,0.2,0.224,0.14,0.448,0.224,0.336,0.084,0.336,0.112,0.308,0.028,0.252,0.028,0.252-.028,0.28-.028,0.168-.028,0.308-.056,0.224-.084,0.252-.056,0.224-.112,0.308-.14,0.336-.2,0.224-.168,0.2-.168,0.532-.532,0.2-.168,0.168-.2,0.14-.2,0.336-.392,0.14-.2,0.28-.448,0.168-.224,0.168-.308,0.224-.336,0.112-.224,0.112-.2,0.112-.224,0.14-.224,0.112-.2,0.112-.224,0.084-.252,0.14-.224,0.112-.252v-0.308Zm-13.748-7.28,0.112-.224,0.112-.252,0.084-.224,0.112-.252,0.112-.224,0.112-.252,0.112-.224,0.112-.252,0.224-.448,0.14-.224,0.112-.252,0.14-.224,0.2-.224,0.112-.14,0.224-.224,0.224-.14,0.252-.056L720.218,620l0.224,0.14,0.112,0.224,0.056,0.252v0.28l-0.056.252-0.028.252-0.056.28-0.168.756-0.252.756-0.112.252-0.084.224-0.112.252-0.224.448-0.14.252-0.336.616-0.14.252-0.112.224-0.14.2-0.168.224-0.14.2-0.168.2-0.28.392-0.5.588-0.14.2-0.2.168-0.168.168-0.2.168-0.252.224-0.224.2-0.2.14-0.112.028,0.028-.2,0.112-.476,0.084-.252,0.056-.252,0.084-.224,0.084-.252,0.168-.476,0.056-.224,0.084-.252,0.084-.224,0.112-.252,0.056-.2,0.084-.224,0.112-.28,0.084-.252,0.084-.364Zm14.84-.728-0.056.28-0.028.252,0.028,0.252,0.056,0.252,0.14,0.224,0.168,0.2,0.448,0.28,0.28,0.056L733.6,624.9l0.28-.056,0.252-.112,0.224-.168,0.2-.168,0.168-.224,0.14-.224,0.084-.252v-0.28l-0.028-.252-0.084-.252-0.14-.224-0.2-.2-0.2-.168-0.224-.14-0.252-.056h-0.28l-0.252.056-0.28.084-0.224.14-0.224.2-0.14.224Zm4.4,8.064-0.364-.056-0.252.14-0.14.224-0.336.672-0.224.476-0.112.252-0.168.252-0.14.224-0.112.168-0.168.2-0.28.448-0.168.224-0.14.2-0.168.2-0.924.924-0.224.168-0.2.14-0.252.112-0.252.028-0.308-.084-0.224-.308-0.056-.42,0.056-.476,0.084-.448,0.084-.364,0.056-.252,0.168-.5,0.2-.7,0.056-.252,0.2-.476,0.056-.252,0.056-.224,0.056-.252,0.2-.588,0.112-.364,0.056-.252,0.28-.84,0.084-.336,0.084-.28,0.056-.252,0.056-.224,0.168-.5,0.084-.364,0.084-.336,0.056-.252v-0.252l-0.14-.2-0.448-.168-0.5-.056-0.28-.028-0.224.028-0.252.112-0.168.14-0.112.224-0.084.252-0.112.364-0.084.336-0.084.252-0.168.756-0.084.224-0.112.28-0.056.252-0.056.2-0.056.252-0.168.5-0.084.364-0.084.336-0.168.5-0.056.224-0.056.252-0.084.252-0.056.252-0.028.224-0.252.756-0.084.224-0.084.252-0.056.252-0.084.224-0.112.5-0.084.252-0.056.252-0.056.5v0.252l0.028,0.252,0.056,0.252,0.056,0.224,0.112,0.252,0.14,0.224,0.14,0.2,0.2,0.168,0.224,0.14,0.252,0.084,0.224,0.084,0.308,0.028h0.476l0.5-.112,0.224-.056,0.252-.084,0.252-.112,0.2-.14,0.616-.476,0.2-.168,0.168-.2,0.2-.2,0.336-.364,0.5-.588,0.28-.448,0.14-.2,0.168-.224,0.14-.2,0.14-.224,0.14-.252,0.084-.168,0.168-.252,0.112-.224,0.14-.252,0.252-.42,0.224-.448,0.084-.252v-0.308Zm13.132-.056-0.364-.056-0.252.14L749,631.62l-0.112.252-0.112.224-0.168.252-0.252.42-0.14.224-0.168.224-0.14.2-0.2.168-0.168.2-0.392.336-0.476.252-0.224.112-0.28.112-0.252.056h-0.2l-0.28.028-0.252.028-0.2-.056-0.056-.112,0.308-.616,0.308-.672,0.112-.252,0.084-.252,0.056-.224,0.056-.252,0.084-.252,0.14-.476,0.056-.252,0.056-.224,0.028-.252,0.028-.28,0.028-.252v-0.252l0.028-.252-0.028-.252v-0.756l-0.112-.5-0.056-.224-0.056-.252-0.084-.252-0.084-.224-0.112-.224-0.168-.252-0.336-.336-0.168-.2-0.2-.14-0.224-.112-0.28-.112-0.224-.084-0.224-.056-0.224-.084-0.252-.056-0.28-.028h-0.364l-0.336.028-0.28.028-0.364.112-0.392.14-0.336.14-0.252.112-0.308.2-0.28.168-0.224.2-0.28.2-0.252.224-0.14.112-0.056-.028,0.056-.168,0.084-.364V626.3l-0.252-.308-0.42-.168-0.448-.028-0.448.028-0.336.112-0.2.168-0.224.672-0.056.252-0.084.224-0.084.252-0.084.28-0.112.448-0.028.224-0.056.252-0.084.252-0.084.224-0.056.252-0.084.252-0.056.224-0.084.252-0.084.224-0.084.252-0.056.252-0.084.336-0.084.364-0.112.5-0.084.28-0.168.672-0.168.5-0.056.252-0.084.336-0.056.364-0.084.252-0.112.476-0.084.252-0.084.224-0.168.756-0.056.224-0.056.252-0.084.252-0.084.364-0.056.336-0.056.28-0.168.672-0.084.28-0.056.252-0.028.224-0.028.252-0.28,1.26-0.056.336-0.056.364-0.056.28-0.056.364-0.084.336-0.056.252-0.028.252L732.9,644.3l-0.028.224-0.056.252-0.028.252,0.028,0.224,0.14,0.2,0.252,0.112,0.308,0.056,0.168,0.028h0.308l0.308-.028,0.252-.028,0.2-.084,0.2-.14,0.084-.224,0.056-.252,0.056-.336,0.056-.364,0.056-.28,0.028-.252,0.084-.224,0.028-.252,0.056-.28,0.056-.336,0.056-.364,0.084-.28,0.056-.336,0.056-.364,0.028-.252,0.224-1.008,0.084-.252,0.028-.252,0.056-.252,0.028-.252,0.168-.672,0.084-.28,0.056-.252,0.028-.224,0.112-.5,0.084-.224,0.084-.168,0.14-.028,0.168,0.084,0.168,0.2,0.2,0.168,0.2,0.14,0.252,0.112,0.224,0.112,0.252,0.112,0.224,0.084,0.252,0.056,0.252,0.028,0.308,0.028h0.98l0.5-.112,0.28-.084,0.168-.056,0.28-.084,0.252-.112,0.224-.112,0.252-.14,0.14-.084,0.252-.168,0.224-.168,0.2-.14,0.2-.168,0.2-.2,0.168-.2,0.2-.14,0.224-.056h0.224l0.252,0.084,0.252,0.056,0.252,0.028h0.28l0.252-.028,0.28-.084,0.364-.084,0.308-.112,0.252-.084,0.224-.14,0.2-.112,0.252-.2,0.252-.168,0.224-.168,0.448-.448,0.168-.2,0.2-.2,0.28-.392,0.112-.224,0.14-.252,0.168-.224,0.084-.14,0.168-.252,0.112-.224,0.084-.2,0.084-.252v-0.336Zm-6.58,1.68-0.168.252-0.28.112-0.392.084-0.336.112-0.2.2-0.112.2-0.056.252,0.028,0.224,0.084,0.252,0.14,0.28,0.056,0.28-0.112.2-0.2.168-0.224.14-0.42.28-0.224.112-0.252.056-0.224.056-0.252.056-0.252.028-0.28.028-0.5-.056-0.336-.084-0.364-.112-0.252-.112-0.2-.14-0.2-.168-0.2-.2-0.14-.168-0.056-.224,0.028-.252,0.084-.364,0.14-.448,0.112-.448,0.056-.364,0.084-.252,0.084-.364,0.112-.42,0.084-.364,0.056-.28,0.084-.336,0.2-.588,0.112-.364,0.14-.42,0.14-.308,0.168-.224,0.392-.392,0.2-.168,0.224-.14,0.2-.168,0.252-.14,0.5-.252,0.168-.056,0.56-.224,0.28-.056,0.2-.056,0.252-.028h0.28l0.224,0.028,0.252,0.056,0.252,0.112,0.252,0.224,0.224,0.252,0.14,0.252,0.056,0.252,0.056,0.224,0.028,0.252V629.3l0.028,0.28-0.112,1.008-0.056.252-0.056.224-0.084.252-0.056.252-0.056.224-0.168.5-0.084.224Zm14.615-9.016,0.112-.224,0.224-.672,0.056-.28,0.084-.224,0.112-.5,0.056-.756v-0.5l-0.056-.364-0.112-.336-0.112-.252-0.14-.336-0.2-.28-0.14-.224-0.392-.336-0.224-.112-0.28-.084-0.168-.028-0.28-.056h-0.5l-0.252.056-0.252.084-0.308.14-0.308.2-0.448.308-0.2.14-0.2.2-0.112.14-0.364.364-0.168.224-0.364.5-0.224.364-0.168.252-0.14.252-0.14.28-0.2.476-0.14.252-0.084.168-0.112.252-0.14.336-0.2.448-0.168.392-0.056.168-0.28.728-0.112.252-0.112.336-0.112.364-0.084.2-0.112.364-0.112.392-0.028.2-0.112.392-0.084.336-0.056.252-0.084.364-0.112.42-0.056.168-0.084.336-0.056.14-0.084.5-0.084.336-0.2.924-0.056.28-0.056.252v0.252l-0.028.336-0.084.616-0.028.364v0.168l-0.028.28-0.028.252v0.252l0.028,0.252L749,634.784v0.168l0.056,0.28,0.028,0.252,0.084,0.252,0.056,0.252,0.084,0.224,0.112,0.252,0.112,0.224,0.168,0.2,0.168,0.168,0.2,0.168,0.224,0.14,0.224,0.112,0.252,0.084,0.224,0.084,0.252,0.056,0.28,0.028h0.168L752,637.752l0.336-.028,0.56-.112,0.336-.112,0.252-.112,0.224-.084,0.224-.112,0.252-.112,0.224-.112,0.252-.14,0.2-.168,0.168-.14,0.2-.2,0.252-.224,0.224-.28,0.168-.2,0.2-.252,0.112-.112,0.2-.252,0.28-.392,0.168-.224,0.14-.252,0.056-.14,0.168-.252,0.14-.224,0.112-.2,0.14-.224,0.084-.224,0.112-.224,0.112-.252,0.14-.224,0.112-.224,0.084-.252v-0.28l-0.224-.28-0.364-.056-0.28.224-0.252.364-0.14.28-0.14.252-0.168.252-0.14.224-0.224.42-0.168.252L756,633.5l-0.168.252-0.112.2-0.168.224-0.112.14-0.168.224-0.224.2-0.336.308-0.252.252-0.28.224-0.224.168-0.308.168-0.336.14-0.252.084-0.224.028h-0.476l-0.28-.056-0.224-.084-0.224-.14-0.168-.2-0.112-.224-0.112-.252-0.056-.28-0.028-.168-0.056-.308v-0.56l0.028-.364V632.88l0.028-.28,0.056-.252,0.056-.28V631.9l0.084-.5,0.056-.308,0.112-.224,0.2-.252,0.308-.252,0.224-.14,0.2-.084,0.616-.392,0.224-.14,0.42-.364,0.308-.224,0.224-.224,0.2-.168,0.308-.336,0.168-.2,0.364-.364,0.2-.224,0.112-.14,0.252-.252,0.252-.28,0.2-.252,0.14-.224,0.112-.168,0.14-.252,0.14-.2,0.14-.224,0.14-.2,0.2-.308,0.14-.308,0.224-.448,0.14-.252Zm-4.452.336,0.112-.252,0.168-.42,0.112-.308,0.084-.224,0.112-.252,0.112-.224,0.112-.252,0.112-.224,0.112-.252,0.14-.252,0.28-.42,0.14-.224,0.14-.2,0.14-.168,0.2-.168,0.252-.2L756,620l0.224,0.056,0.2,0.14,0.084,0.224,0.056,0.224v0.532l-0.028.252-0.028.28-0.112.308-0.084.308-0.112.308-0.084.308-0.084.252-0.056.252-0.112.252-0.112.28-0.084.168-0.112.28-0.224.448-0.14.2-0.112.2-0.14.224-0.2.308-0.2.28-0.2.252-0.168.252-0.112.112-0.168.252-0.14.224-0.14.2-1.148,1.148-0.28.224-0.168.112-0.056-.168,0.056-.28,0.084-.252,0.084-.28,0.028-.168,0.084-.28,0.2-.588,0.112-.364,0.084-.252,0.056-.252,0.392-1.176Zm13.02,6.44,0.14-.252,0.084-.14,0.112-.28,0.112-.336,0.084-.336,0.028-.28,0.028-.364V628.2l-0.028-.252-0.056-.252-0.084-.252-0.14-.336-0.168-.28-0.168-.2L766,626.3l-0.168-.112-0.224-.112-0.252-.112-0.252-.084-0.364-.084-0.448-.084-0.364-.056h-0.616l-0.364.056-0.5.112-0.588.2-0.364.168-0.252.112-0.28.14-0.28.168-0.252.2-0.28.2-0.252.2-0.224.2-0.42.42-0.42.448-0.168.2-0.14.2-0.112.252-0.2.28-0.168.308-0.14.252-0.14.336-0.112.308-0.084.252-0.056.252-0.084.252-0.056.252-0.084.224-0.168.756v0.252l-0.028.252v0.532l0.084,0.756,0.056,0.252,0.056,0.224,0.056,0.252,0.084,0.252,0.084,0.224,0.112,0.252,0.112,0.2,0.14,0.224,0.168,0.2,0.2,0.224,0.112,0.14,0.2,0.2,0.2,0.168,0.224,0.112,0.448,0.252,0.224,0.112,0.252,0.112,0.252,0.084,0.224,0.056,1.008,0.112h0.252l0.308-.028,0.364-.028,0.588-.056,0.336-.084,0.364-.056,0.252-.084,0.224-.084,0.7-.308,0.448-.28,0.252-.224,0.28-.224,0.392-.336,0.168-.2,0.2-.224,0.084-.112,0.2-.224,0.168-.2,0.168-.168,0.168-.2,0.28-.392,0.168-.252,0.084-.168,0.28-.448,0.168-.28,0.168-.308,0.14-.308,0.168-.308,0.14-.308,0.112-.252,0.028-.252-0.14-.252L768.629,631h-0.252l-0.2.14-0.14.224-0.112.224-0.112.252-0.112.224-0.14.2-0.112.224-0.14.224-0.112.224-0.14.224-0.28.392-0.168.224-0.14.2-0.336.392-0.392.364-0.2.168-0.2.14-0.392.308-0.448.224-0.476.2-0.224.084-0.252.084-0.252.056-0.728.14-0.252.028h-0.28l-0.252-.028-0.252-.056-0.2-.028-0.252-.084-0.28-.084-0.448-.28-0.168-.168-0.168-.2-0.28-.448-0.168-.5-0.056-.224-0.028-.28V633.3l0.028-.28v-0.252l0.056-.2,0.14-.112h0.2l0.756,0.168,0.252,0.028,0.5,0.028,0.5,0.056h0.252l0.252-.028,0.336-.056,0.308-.028,0.28-.056,0.252-.028,0.252-.084,0.28-.084,0.252-.112,0.168-.084,0.28-.168,0.168-.056,0.252-.14,0.2-.14,0.392-.336,0.336-.392,0.14-.2Zm-3.164-3.22,0.28-.056,0.252,0.028,0.252,0.056,0.252,0.112,0.224,0.168,0.168,0.2,0.112,0.252,0.028,0.28-0.028.252-0.056.28-0.168.5-0.14.252-0.112.224-0.14.2-0.168.224-0.2.168-0.2.2-0.2.168-0.2.14-0.28.14-0.168.056-0.28.112-0.252.056-0.28.056h-0.784l-0.28-.028-0.56-.028-0.364-.084-0.14-.14,0.028-.2,0.084-.224,0.112-.252,0.112-.336,0.168-.308,0.14-.252,0.2-.28,0.2-.308,0.2-.224,0.224-.252,0.252-.252,0.392-.336,0.224-.14,0.336-.168,0.392-.168Zm23.66,4.592,0.084-.252v-0.28l-0.252-.28L786.437,631l-0.252.168-0.14.224-0.084.224-0.112.252-0.112.224-0.56.9-0.14.2-0.364.364-0.392.364-0.2.168-0.448.28-0.224.084-0.5.168-0.5.056h-0.252l-0.224-.056-0.084-.14-0.028-.224v-0.7l-0.028-.28-0.056-.364-0.056-.448-0.056-.364-0.084-.252-0.252-.672-0.084-.252-0.084-.224-0.112-.252-0.168-.308-0.112-.336-0.112-.252-0.308-.784-0.168-.448-0.14-.448-0.14-.364-0.056-.28-0.084-.336-0.056-.336,0.028-.252,0.056-.224,0.14-.224,0.112-.224,0.056-.252v-0.252l-0.084-.224-0.168-.2-0.224-.14-0.252-.056-0.252-.028-0.224.028-0.252.056-0.28.084-0.252.112-0.448.28-0.2.168-0.2.2-0.168.2-0.336.364-0.672.784-0.14.2-0.14.252-0.112.14-0.14.252-0.112.224-0.14.224-0.14.252-0.2.308-0.168.308-0.112.252-0.14.224-0.336.672-0.084.224-0.112.252-0.14.252-0.084.168-0.14.252-0.224.448-0.056.252-0.028.252,0.14,0.224,0.28,0.14,0.252-.056,0.224-.252,0.168-.308,0.112-.252,0.112-.224,0.252-.448,0.112-.252,0.168-.308,0.168-.364,0.112-.224,0.112-.2,0.112-.224,0.14-.2,0.112-.252,0.168-.308,0.308-.56,0.14-.2,0.14-.224,0.28-.392,0.168-.2,0.392-.392,0.168-.056L777.7,626.8l0.028,0.252,0.028,0.224,0.056,0.252,0.084,0.252,0.084,0.336,0.112,0.336,0.084,0.28,0.084,0.224,0.084,0.252,0.084,0.224,0.084,0.252,0.084,0.224,0.084,0.252,0.084,0.224,0.112,0.224,0.084,0.224,0.084,0.252,0.084,0.224,0.084,0.252,0.056,0.224,0.084,0.252,0.084,0.224,0.084,0.252,0.056,0.252v0.2l-0.112.14-0.42.28-0.168.168-0.14.252-0.028.252,0.028,0.28,0.112,0.224,0.168,0.224,0.14,0.2v0.28l-0.14.28-0.2.168-0.224.168-0.2.112-0.252.084-0.224.028h-0.28l-0.252-.056-0.224-.084-0.224-.112-0.2-.14-0.168-.2-0.14-.2-0.14-.224-0.112-.224-0.112-.5-0.028-.252,0.028-.252v-0.252l-0.028-.224-0.168-.168-0.336-.028-0.42.112-0.336.28-0.168.308-0.056.28v0.5l0.028,0.28,0.168,0.756,0.084,0.252,0.42,0.672,0.2,0.2,0.2,0.168,0.42,0.308,0.252,0.14,0.252,0.112,0.2,0.084,0.252,0.084,0.28,0.028h0.28l0.364-.028,0.476-.028,0.448-.084,0.364-.084,0.252-.112,0.28-.168,0.308-.168,0.252-.168,0.28-.224,0.252-.224,0.2-.2,0.14-.2,0.14-.168,0.168-.084h0.224l0.252,0.028h0.28l0.2-.028,0.28-.028,0.336-.056,0.252-.056,0.2-.056,0.252-.084,0.224-.112,0.252-.112,0.2-.14,0.224-.168,0.2-.14,0.2-.168,0.2-.2,0.672-.784,0.14-.2,0.14-.224,0.14-.252,0.112-.224,0.14-.224,0.112-.224,0.112-.252Zm7.755-.812-0.364-.056-0.336.224-0.168.28-0.14.224-0.14.28-0.084.252-0.112.224-0.14.224-0.14.2-0.168.224-0.14.224-0.112.224-0.14.2-0.364.448-0.28.364-0.14.168-0.2.2-0.784.672-0.672.336-0.308.056h-0.28l-0.308-.056-0.392-.168-0.308-.2-0.14-.2-0.112-.252-0.084-.252-0.056-.336-0.056-.364V633.44l0.056-.5,0.056-.364,0.028-.336,0.112-.5,0.084-.28,0.084-.308,0.084-.392,0.028-.168,0.084-.392,0.112-.448,0.112-.476,0.14-.448,0.112-.476,0.112-.448,0.112-.336,0.084-.224,0.168-.112h1.036l0.252,0.028H791.2l0.756-.028,0.28-.028,0.252-.056,0.252-.084,0.2-.14,0.14-.2,0.084-.252V626.1L793.1,625.8l-0.2-.168-0.364-.028h-0.868l-0.392.028-0.476.028h-0.28l-0.308-.056-0.168-.14v-0.2l0.084-.224,0.112-.224,0.056-.252,0.2-.588,0.168-.42,0.112-.364,0.084-.252,0.084-.224,0.308-.924,0.084-.28,0.056-.168,0.084-.28,0.14-.364,0.168-.392,0.14-.364,0.056-.252-0.084-.308-0.224-.2-0.252-.14-0.364-.084-0.336-.056-0.28-.028-0.252.056-0.224.14-0.14.2-0.112.252-0.084.252-0.056.224-0.112.252-0.112.224-0.084.252-0.084.224-0.084.252-0.112.252-0.084.224-0.168.5-0.112.224-0.084.252-0.112.5-0.168.5-0.084.224-0.112.252-0.112.224-0.084.252-0.056.224-0.056.28-0.112.2-0.28.084h-0.42l-0.42-.028-0.364.028-0.2.14-0.112.2-0.056.224,0.028,0.28,0.056,0.252,0.2,0.252,0.28,0.112,0.28,0.056,0.224,0.028,0.2,0.056,0.084,0.14v0.224l-0.168.5-0.112.364-0.056.336-0.056.252-0.084.252-0.056.252-0.084.252-0.056.252-0.084.336-0.084.364-0.112.5-0.028.252-0.056.252-0.14,1.26v0.252l-0.084.756v0.252l0.028,0.28v0.252l0.028,0.252v0.252l0.056,0.224,0.056,0.252,0.084,0.252,0.084,0.224,0.224,0.448,0.14,0.224,0.14,0.2,0.392,0.336,0.224,0.14,0.308,0.14,0.336,0.112,0.252,0.056,0.252,0.028h0.784l0.252-.028,0.224-.056,0.252-.084,0.252-.112,0.336-.14,0.308-.168,0.224-.168,0.392-.336,0.392-.308,0.532-.532,0.168-.2,0.14-.2,0.14-.224,0.336-.392,0.168-.252,0.112-.2,0.224-.42,0.14-.224,0.112-.2,0.28-.448,0.112-.224,0.112-.252,0.336-.616,0.112-.28v-0.308Zm7.084,4.872,0.2-.14,0.2-.084,0.224,0.028,0.224,0.056,0.252,0.028,0.308,0.028,1.008-.112,0.224-.056,0.252-.112,0.448-.224,0.2-.112,0.224-.168,0.2-.14,0.2-.168,0.168-.168,0.364-.392,0.168-.168,0.14-.2,0.168-.224,0.14-.2,0.112-.224,0.28-.448,0.14-.2,0.336-.672,0.084-.252L808,631.34l-0.224-.252-0.336-.056-0.252.14-0.168.252-0.084.168-0.252.476-0.224.448-0.14.2-0.14.224-0.14.2-0.336.392-0.364.364-0.2.168-0.448.28-0.2.112-0.28.112-0.252.056-0.2.028-0.308.028h-0.168l-0.224-.028-0.028-.2,0.14-.308,0.252-.5,0.168-.308,0.084-.252,0.112-.308,0.112-.28,0.084-.28,0.112-.392,0.168-.84,0.028-.28,0.028-.308,0.056-.336v-0.98l-0.112-.5-0.028-.224-0.028-.252-0.084-.252-0.336-.616L803.628,627l-0.168-.2-0.14-.168-0.2-.168-0.308-.168-0.5-.308-0.224-.112-0.252-.084-0.252-.056-0.364-.056-0.448-.056h-0.644l-0.252.028-0.28.028-0.252.056-0.28.084-0.168.056-0.308.112-0.168.056-0.28.112-0.224.112-0.308.168-0.308.2-0.252.168-0.224.168-0.2.14-0.392.336-0.364.364-0.168.2-0.28.448-0.168.2-0.14.2-0.168.224-0.14.224-0.168.336-0.14.336-0.084.252-0.112.224-0.112.252-0.084.252-0.084.224-0.056.252-0.056.28-0.084.5-0.056.252-0.056.224-0.056.252v0.784l-0.028.252,0.028,0.28,0.056,0.5,0.112,0.5,0.168,0.5,0.14,0.224,0.112,0.224,0.14,0.224,0.336,0.392,0.2,0.168,0.448,0.28,0.224,0.112,0.252,0.084,0.2,0.084,0.252,0.084,0.308,0.084,0.5,0.056h0.252l0.308-.028h0.252l0.224-.028,0.28-.056,0.168-.056,0.5-.084,0.28-.084,0.5-.168,0.224-.112,0.448-.28,0.224-.112,0.448-.28,0.392-.336Zm-5.656-3.192v-0.252l0.028-.252,0.084-.252,0.056-.224,0.168-.5,0.056-.224,0.084-.252,0.56-1.12,0.14-.224,0.28-.392,0.14-.224,0.168-.2,0.14-.2,0.2-.2,0.2-.168,0.28-.224,0.252-.168,0.224-.14,0.28-.168,0.252-.084,0.224-.056h0.28l0.364,0.028,0.42,0.084,0.336,0.14,0.224,0.168,0.2,0.28,0.168,0.42,0.112,0.476,0.028,0.448-0.056.952-0.084.476-0.056.364-0.168.756-0.336,1.008-0.084.224-0.112.168-0.168.028-0.2-.056-0.252-.056-0.252.028-0.224.14-0.2.168-0.112.336-0.056.336,0.056,0.252,0.14,0.224,0.112,0.2v0.168l-0.112.2-0.224.168-0.2.168-0.224.14-0.252.14-0.224.112-0.252.112-0.28.056-0.28.028h-0.364l-0.42-.112-0.308-.14-0.224-.2-0.2-.28-0.2-.42-0.112-.448-0.056-.448-0.028-.364-0.028-.28,0.028-.336Zm12.767-7.14,0.056,0.224V626.1l-0.056.28-0.084.252-0.056.252-0.056.224-0.056.252-0.112.252-0.056.252-0.084.252-0.056.252-0.224.5-0.084.224-0.084.252-0.112.252-0.084.252-0.112.224-0.112.28-0.084.168-0.224.5-0.084.252-0.084.224-0.112.252-0.084.252-0.028.224,0.168,0.2,0.224,0.14h0.252l0.168-.14,0.14-.224,0.168-.308,0.14-.308,0.14-.28,0.14-.308,0.14-.336,0.112-.252,0.14-.308,0.14-.336,0.084-.252,0.084-.224,0.084-.252,0.252-.672,0.084-.252,0.056-.224,0.056-.252,0.084-.252,0.056-.252,0.112-.252,0.224-.056L810.291,627l0.168,0.2,0.448,0.5,0.168,0.224,0.28,0.448,0.056,0.336-0.084.42-0.14.308-0.308.448-0.224.392-0.168.224-0.224.308-0.168.308-0.14.252-0.2.28-0.2.308-0.14.252-0.168.308-0.14.308-0.112.252-0.084.224-0.084.252-0.112,1.008v0.252l0.028,0.252,0.056,0.252,0.056,0.28,0.056,0.252,0.112,0.224,0.112,0.252,0.14,0.2,0.168,0.224,0.168,0.168,0.2,0.168,0.42,0.28,0.28,0.14,0.224,0.084,0.56,0.112,0.364,0.028h0.644l0.28-.056,0.224-.056,0.252-.084,0.224-.112,0.252-.112,0.448-.224,0.252-.168,0.224-.168,0.336-.336,0.2-.168,0.336-.392,0.2-.28,0.224-.308,0.336-.448,0.28-.448,0.14-.252,0.112-.14,0.14-.252,0.28-.448,0.224-.448,0.14-.224,0.112-.224,0.224-.476,0.084-.252V631.34l-0.252-.28-0.364-.084-0.252.14-0.112.224-0.084.224-0.112.224-0.168.308-0.084.168-0.14.252-0.112.224-0.14.224-0.14.252-0.14.2-0.42.672-0.5.588-0.168.224-0.168.168-0.2.168-0.224.168-0.42.28-0.2.14-0.252.112-0.252.084-0.252.056h-0.532l-0.28-.056-0.224-.14-0.2-.168-0.14-.252-0.14-.224-0.112-.56v-0.28l0.028-.252,0.056-.252,0.056-.28,0.056-.252,0.084-.224,0.084-.252,0.476-.952,0.14-.224,0.168-.224,0.14-.224,0.168-.224,0.14-.2,0.14-.224,0.168-.2,0.28-.448,0.168-.2,0.112-.224,0.084-.252,0.028-.252-0.084-.364-0.084-.336-0.084-.252-0.28-.448-0.168-.2-0.2-.168-0.2-.224-0.112-.14-0.2-.224-0.364-.364-0.2-.168-0.308-.364-0.2-.224-0.2-.168-0.2-.2-0.14-.2-0.056-.224v-0.224l0.056-.28v-0.756l-0.084-.252-0.112-.224-0.168-.168-0.224-.14-0.252-.056h-0.252l-0.252.056-0.224.112-0.2.168-0.168.2-0.14.2-0.112.252-0.056.252v0.252l0.028,0.252,0.252,0.756Zm17.136,4.9,0.14-.252,0.084-.14,0.112-.28,0.112-.336,0.084-.336,0.028-.28,0.028-.364V628.2l-0.028-.252-0.056-.252-0.084-.252-0.14-.336-0.168-.28-0.168-.2-0.392-.336-0.168-.112-0.224-.112-0.252-.112-0.252-.084-0.364-.084-0.448-.084-0.364-.056h-0.616l-0.364.056-0.5.112-0.588.2-0.364.168-0.252.112-0.28.14-0.28.168-0.252.2-0.28.2-0.252.2-0.224.2-0.42.42-0.42.448-0.168.2-0.14.2-0.112.252-0.2.28-0.168.308-0.14.252-0.14.336-0.112.308-0.084.252-0.056.252-0.084.252-0.056.252-0.084.224-0.168.756v0.252l-0.028.252v0.532l0.084,0.756,0.056,0.252,0.056,0.224,0.056,0.252,0.084,0.252,0.084,0.224,0.112,0.252,0.112,0.2,0.14,0.224,0.168,0.2,0.2,0.224,0.112,0.14,0.2,0.2,0.2,0.168,0.224,0.112L819,637.332l0.224,0.112,0.252,0.112,0.252,0.084,0.224,0.056,1.008,0.112h0.252l0.308-.028,0.364-.028,0.588-.056,0.336-.084,0.364-.056,0.252-.084,0.224-.084,0.7-.308,0.448-.28,0.252-.224,0.28-.224,0.392-.336,0.168-.2,0.2-.224,0.084-.112,0.2-.224,0.168-.2,0.168-.168,0.168-.2,0.28-.392,0.168-.252,0.084-.168,0.28-.448,0.168-.28,0.168-.308,0.14-.308,0.168-.308,0.14-.308,0.112-.252,0.028-.252-0.14-.252L828.211,631h-0.252l-0.2.14-0.14.224-0.112.224-0.112.252-0.112.224-0.14.2-0.112.224-0.14.224-0.112.224-0.14.224-0.28.392-0.168.224-0.14.2-0.336.392-0.392.364-0.2.168-0.2.14-0.392.308-0.448.224-0.476.2-0.224.084-0.252.084-0.252.056-0.728.14-0.252.028h-0.28l-0.252-.028-0.252-.056-0.2-.028-0.252-.084-0.28-.084-0.448-.28-0.168-.168-0.168-.2-0.28-.448-0.168-.5-0.056-.224-0.028-.28V633.3l0.028-.28v-0.252l0.056-.2,0.14-.112h0.2l0.756,0.168,0.252,0.028,0.5,0.028,0.5,0.056h0.252l0.252-.028,0.336-.056,0.308-.028,0.28-.056,0.252-.028,0.252-.084,0.28-.084,0.252-.112,0.168-.084,0.28-.168,0.168-.056,0.252-.14,0.2-.14,0.392-.336,0.336-.392,0.14-.2Zm-3.164-3.22,0.28-.056,0.252,0.028,0.252,0.056,0.252,0.112,0.224,0.168,0.168,0.2,0.112,0.252,0.028,0.28-0.028.252-0.056.28-0.168.5-0.14.252-0.112.224-0.14.2-0.168.224-0.2.168-0.2.2-0.2.168-0.2.14-0.28.14-0.168.056-0.28.112-0.252.056-0.28.056h-0.784l-0.28-.028-0.56-.028-0.364-.084-0.14-.14,0.028-.2,0.084-.224,0.112-.252,0.112-.336,0.168-.308,0.14-.252,0.2-.28,0.2-.308,0.2-.224,0.224-.252,0.252-.252,0.392-.336,0.224-.14,0.336-.168,0.392-.168Zm18.2,4.592,0.084-.252v-0.28l-0.252-.28L840.559,631l-0.252.168-0.14.224-0.084.224-0.112.252-0.112.224-0.56.9-0.14.2-0.364.364-0.392.364-0.2.168-0.448.28-0.224.084-0.5.168-0.5.056h-0.252l-0.224-.056-0.084-.14-0.028-.224v-0.7l-0.028-.28-0.056-.364-0.056-.448-0.056-.364-0.084-.252-0.252-.672-0.084-.252-0.084-.224-0.112-.252-0.168-.308-0.112-.336-0.112-.252-0.308-.784-0.168-.448-0.14-.448-0.14-.364-0.056-.28-0.084-.336-0.056-.336,0.028-.252,0.056-.224,0.14-.224,0.112-.224,0.056-.252v-0.252l-0.084-.224-0.168-.2-0.224-.14-0.252-.056-0.252-.028-0.224.028-0.252.056-0.28.084-0.252.112-0.448.28-0.2.168-0.2.2-0.168.2-0.336.364-0.672.784-0.14.2-0.14.252-0.112.14-0.14.252-0.112.224-0.14.224-0.14.252-0.2.308-0.168.308-0.112.252-0.14.224-0.336.672-0.084.224-0.112.252-0.14.252-0.084.168-0.14.252-0.224.448-0.056.252-0.028.252,0.14,0.224,0.28,0.14,0.252-.056,0.224-.252,0.168-.308,0.112-.252,0.112-.224,0.252-.448,0.112-.252,0.168-.308,0.168-.364,0.112-.224,0.112-.2,0.112-.224,0.14-.2L830,628.96l0.168-.308,0.308-.56,0.14-.2,0.14-.224,0.28-.392,0.168-.2,0.392-.392,0.168-.056,0.056,0.168,0.028,0.252,0.028,0.224,0.056,0.252,0.084,0.252,0.084,0.336,0.112,0.336,0.084,0.28,0.084,0.224,0.084,0.252,0.084,0.224,0.084,0.252,0.084,0.224,0.084,0.252,0.084,0.224L833,630.612l0.084,0.224,0.084,0.252,0.084,0.224,0.084,0.252,0.056,0.224,0.084,0.252,0.084,0.224,0.084,0.252,0.056,0.252v0.2l-0.112.14-0.42.28-0.168.168-0.14.252-0.028.252,0.028,0.28,0.112,0.224,0.168,0.224,0.14,0.2v0.28l-0.14.28-0.2.168-0.224.168-0.2.112-0.252.084-0.224.028h-0.28l-0.252-.056-0.224-.084-0.224-.112-0.2-.14-0.168-.2-0.14-.2-0.14-.224-0.112-.224-0.112-.5-0.028-.252,0.028-.252v-0.252l-0.028-.224L830,633.216l-0.336-.028-0.42.112-0.336.28-0.168.308-0.056.28v0.5l0.028,0.28,0.168,0.756,0.084,0.252,0.42,0.672,0.2,0.2,0.2,0.168,0.42,0.308,0.252,0.14,0.252,0.112,0.2,0.084,0.252,0.084,0.28,0.028h0.28l0.364-.028,0.476-.028,0.448-.084,0.364-.084,0.252-.112,0.28-.168,0.308-.168,0.252-.168,0.28-.224,0.252-.224,0.2-.2,0.14-.2,0.14-.168,0.168-.084h0.224l0.252,0.028h0.28l0.2-.028,0.28-.028,0.336-.056,0.252-.056,0.2-.056,0.252-.084,0.224-.112,0.252-.112,0.2-.14,0.224-.168,0.2-.14,0.2-.168,0.2-.2,0.672-.784,0.14-.2,0.14-.224,0.14-.252,0.112-.224,0.14-.224,0.112-.224,0.112-.252Zm7.224-13.636-0.364-.056-0.364-.028-0.868-.028h-0.252l-0.252.028-0.308.056-0.336.084-0.392.14-0.336.112-0.252.112-0.448.224-0.2.14-0.224.168-0.28.2-0.252.224L842.8,620l-0.168.2-0.14.2-0.14.252-0.14.308-0.14.336-0.084.252-0.084.224-0.112.252-0.168.672-0.056.252-0.028.224,0.056,0.252,0.252,0.252,0.392,0.2,0.42,0.056,0.364-.056,0.224-.084,0.168-.168,0.112-.224,0.028-.252,0.112-.5,0.056-.224,0.112-.252,0.084-.252,0.112-.224,0.112-.252,0.112-.224,0.14-.224,0.168-.2,0.2-.2,0.224-.168,0.224-.14,0.2-.112,0.252-.112,0.252-.084,0.252-.056,0.5-.056h0.252l0.252,0.028,0.5,0.112,0.224,0.112,0.224,0.14,0.224,0.252,0.2,0.28,0.084,0.28,0.084,0.336,0.056,0.336,0.028,0.28-0.028.364-0.084.336-0.056.28-0.084.336-0.112.364-0.084.252-0.14.308-0.168.336-0.112.252-0.2.28-0.168.308-0.14.224-0.14.2-0.14.224-0.168.2-0.14.168-0.2.224-0.14.112-0.2.252-0.112.112-0.2.224-0.168.2-0.168.168-0.2.168-0.168.168-0.168.2-0.336.336-0.252.28-0.224.252-0.336.448-0.28.364-0.14.2-0.14.224-0.392.616-0.112.224-0.112.252-0.112.308-0.112.336-0.112.252-0.084.364-0.056.336v0.28l0.084,0.308,0.28,0.252,0.42,0.084,0.448-.084,0.336-.2,0.2-.28,0.084-.28,0.112-.336,0.084-.336,0.168-.5,0.112-.252,0.392-.56,0.168-.224,0.28-.448,0.14-.2,0.2-.168,0.168-.168,0.2-.224,0.112-.112,0.2-.224,0.168-.168,0.392-.336,0.2-.14,0.2-.168,0.168-.2,0.168-.168,0.2-.224,0.308-.336,0.2-.168,0.364-.364,0.14-.168,0.2-.252,0.084-.14,0.168-.224,0.14-.2,0.14-.224,0.168-.252,0.084-.14,0.14-.308,0.084-.14,0.112-.28,0.14-.224,0.112-.224,0.084-.252,0.056-.252,0.112-.476,0.084-.252,0.056-.28,0.028-.252v-0.252l0.028-.252v-0.28l-0.056-.5-0.084-.252-0.056-.252-0.084-.224-0.168-.5-0.28-.448-0.14-.2-0.224-.224-0.5-.448-0.252-.168-0.252-.112-0.28-.084Zm-4.48,18.844,0.168-.392,0.056-.364L844,636.1l-0.084-.224-0.14-.2-0.2-.168-0.252-.112L843,635.316h-0.448l-0.42.14-0.28.2-0.168.252-0.084.336v0.392l0.084,0.336,0.14,0.224,0.168,0.2,0.2,0.14,0.224,0.084,0.252,0.056h0.252l0.224-.028,0.252-.112,0.2-.14Z" transform="translate(-597.469 -587.969)"/>
  <path class="cls-2" d="M668,618s-62.578,26.593-17,41,12.921-47.907-28-30-14.079,59.593-12,62" transform="translate(-597.469 -587.969)"/>
  <path class="cls-3" d="M606,694l6,1,2-6" transform="translate(-597.469 -587.969)"/>
</svg>
